<?xml version="1.0" encoding="UTF-8" standalone="no"?>
<!-- Created with Inkscape (http://www.inkscape.org/) -->

<svg
   width="211mm"
   height="75mm"
   viewBox="0 0 211 75"
   version="1.1"
   id="svg1"
   xml:space="preserve"
   inkscape:version="1.3.2 (1:1.3.2+202311252150+091e20ef0f)"
   sodipodi:docname="hlek.svg"
   xmlns:inkscape="http://www.inkscape.org/namespaces/inkscape"
   xmlns:sodipodi="http://sodipodi.sourceforge.net/DTD/sodipodi-0.dtd"
   xmlns="http://www.w3.org/2000/svg"
   xmlns:svg="http://www.w3.org/2000/svg"><sodipodi:namedview
     id="namedview1"
     pagecolor="#505050"
     bordercolor="#eeeeee"
     borderopacity="1"
     inkscape:showpageshadow="0"
     inkscape:pageopacity="0"
     inkscape:pagecheckerboard="0"
     inkscape:deskcolor="#d1d1d1"
     inkscape:document-units="mm"
     inkscape:zoom="1.5518659"
     inkscape:cx="403.38537"
     inkscape:cy="521.30794"
     inkscape:window-width="3840"
     inkscape:window-height="2072"
     inkscape:window-x="0"
     inkscape:window-y="0"
     inkscape:window-maximized="1"
     inkscape:current-layer="layer1" /><defs
     id="defs1" /><g
     inkscape:label="Layer 1"
     inkscape:groupmode="layer"
     id="layer1"><path
       style="fill:#7ee3ff;fill-opacity:0.690776;stroke:#000000;stroke-width:0.264583px;stroke-linecap:butt;stroke-linejoin:miter;stroke-opacity:1"
       d="m 16.072755,3.5559532 0.327197,3.637129 0.50967,4.8309298 0.296996,5.449617 0.331695,6.718285 -0.104168,5.20811 0.0679,1.01164 0.785519,-0.61634 0.382032,-0.32277 0.862111,-0.13248 0.62936,0.20442 0.630777,0.26381 0.466505,0.0319 0.585579,-0.091 0.461553,-0.26667 0.396734,-0.19408 0.755503,-0.45888 0.426908,-0.12989 0.545722,0.22403 0.368791,0.14319 0.551311,0.0625 0.487824,-0.20353 0.32843,-0.12741 0.413413,-0.11922 0.450109,-0.0251 0.295373,0.0886 0.320093,0.13338 0.167956,0.0675 -0.151836,-4.24825 -0.216171,-5.86734 -0.245128,-2.530076 -0.308473,-2.18798 -0.0704,-2.841138 -0.134542,-2.4662418 -0.239435,-3.059134 -0.151973,-2.775087 0.406064,-0.629066 -0.164372,-0.438883 -0.802811,0.04722 -0.995623,0.222742 -1.394277,0.30125 -0.856248,0.113257 -1.011303,0.131961 -0.917488,0.147103 -1.185707,0.167066 -1.013272,0.06212 -0.429737,0.01603 -0.684725,0.01691 -1.151846,0.227709 z"
       id="path1" /><path
       style="fill:#0bb50b;fill-opacity:1;stroke:#000000;stroke-width:0.264583px;stroke-linecap:butt;stroke-linejoin:miter;stroke-opacity:1"
       d="m 17.57091,31.244564 -0.06099,-0.88356 1.150935,-0.87836 0.876195,-0.13755 1.244534,0.47567 0.443089,0.0315 0.618212,-0.0981 0.871578,-0.46533 0.736656,-0.45032 0.439179,-0.12158 0.898932,0.35578 0.549337,0.0598 0.827519,-0.32676 0.390222,-0.11969 0.477672,-0.0333 0.799267,0.28286 0.0313,1.12876 0.71751,-0.48645 1.048406,-0.0909 1.407417,0.0327 1.142812,0.12005 1.234548,0.17749 1.177597,0.27816 1.022099,0.31235 0.948168,0.19835 1.295115,0.40164 0.908558,0.48397 1.118579,0.70401 0.827317,0.63806 0.694267,0.63012 0.758621,0.63421 0.913749,0.73413 0.614318,1.00272 0.378325,1.14358 0.359727,1.69327 0.38322,1.33878 0.272873,1.38005 0.264205,1.687 0.127227,1.95008 -0.08589,1.6383 -0.217567,1.63472 -0.242922,1.67078 -0.366125,1.43528 -0.431213,1.64054 -0.587716,1.23884 -0.75433,1.54262 -0.775912,1.80399 -0.793451,1.59744 -0.920218,1.80672 -0.752348,1.42714 -0.810305,1.35674 -1.229862,1.46991 -1.278316,1.24797 -1.3379,1.06343 -1.311138,0.69874 -2.10675,0.84072 -2.212496,0.80755 -2.501481,0.5933 -2.7404,0.23079 -2.43522,-0.0924 -2.952427,-0.59033 -2.727479,-0.77193 -2.410384,-1.09188 -2.336203,-1.61772 -1.6156438,-1.45796 -1.9591387,-2.01383 -1.6582896,-2.51941 -1.2245525,-2.10344 -0.7189739,-2.45129 -0.3188538,-2.56089 -0.00839,-3.06626 0.1612487,-2.36624 0.2897592,-1.71305 0.4930877,-1.78333 0.7825036,-2.00106 0.9233115,-1.76888 0.8885099,-1.74684 1.267406,-1.60478 1.338054,-1.67556 1.9247537,-1.5014 1.906851,-1.3557 1.775636,-1.06892 1.533616,-0.64806 z"
       id="path2" /><path
       style="fill:#000000;fill-opacity:1;stroke:#000000;stroke-width:0.264583px;stroke-linecap:butt;stroke-linejoin:miter;stroke-opacity:1"
       d="m 18.824044,56.254904 -0.549778,-4.99581 -0.162149,-3.99009 -0.1486,-3.21533 0.180849,-2.78704 0.913861,-0.009 0.430756,0.44461 0.162722,0.682 0.431657,6.87279 7.250278,-1.033 -0.267998,-6.66873 0.512058,-0.0928 0.635079,0.10717 0.268367,0.28885 0.05223,0.67587 0.09963,4.80302 -0.179293,1.43104 0.125146,1.54773 0.441285,4.94492 -0.623832,0.22244 -0.382524,0.28735 -0.190457,0.32828 -0.404467,-0.0149 -0.208159,-0.4425 0.09189,-1.36271 5.55e-4,-0.9901 -0.134234,-1.16608 0.09555,-0.96752 0.02624,-1.25269 -2.051952,0.47311 -2.358324,0.33723 -1.694615,0.35618 -0.921913,0.1082 0.05091,1.84291 -0.01182,1.48224 0.06011,1.73981 z"
       id="path3" /><path
       style="fill:#383aca;fill-opacity:1;stroke:#000000;stroke-width:0.264583px;stroke-linecap:butt;stroke-linejoin:miter;stroke-opacity:1"
       d="m 66.027867,59.432254 0.415288,11.5724 3.497813,-0.0954 2.598234,-0.18532 2.178603,-0.32715 2.501628,-0.58344 2.395693,-0.63668 -0.0081,-1.06602 -0.211336,-1.55482 -0.152315,-1.35199 -0.379886,-1.77204 -0.08915,-1.70858 -0.171173,-2.32664 -1.69655,0.51854 -1.645873,0.28035 -1.737706,0.24211 -1.756934,0.0318 -1.639639,-0.13637 -1.630849,-0.22588 -1.58034,-0.42356 z"
       id="path4" /><path
       style="fill:#383aca;fill-opacity:1;stroke:#000000;stroke-width:0.264583px;stroke-linecap:butt;stroke-linejoin:miter;stroke-opacity:1"
       d="m 73.2598,73.016764 0.859761,0.0817 0.863904,-0.3335 0.591066,-0.57672 0.103064,-0.57794 0.0056,-0.88237 -0.123828,-0.5514 -1.337688,0.30755 -1.255877,0.21394 -1.518621,0.14291 -1.328338,0.0565 0.0204,0.59477 0.52533,0.78342 0.92838,0.42392 0.935866,0.22746 z"
       id="path5" /><path
       style="fill:none;stroke:#000000;stroke-width:0.264583px;stroke-linecap:butt;stroke-linejoin:miter;stroke-opacity:1"
       d="m 67.445608,59.860124 0.07092,1.35951 0.06111,1.66752 0.129862,1.96828 0.05355,1.76404 0.136697,2.03395 0.251438,2.27221"
       id="path6" /><path
       style="fill:none;stroke:#000000;stroke-width:0.264583px;stroke-linecap:butt;stroke-linejoin:miter;stroke-opacity:1"
       d="m 69.429155,60.250184 0.03112,1.13925 0.08815,1.86188 0.117618,2.11493 0.161033,1.88614 0.161676,1.63939 0.183875,2.04746"
       id="path7" /><path
       style="fill:none;stroke:#000000;stroke-width:0.264583px;stroke-linecap:butt;stroke-linejoin:miter;stroke-opacity:1"
       d="m 71.545255,60.499374 0.06386,1.49145 0.04495,1.72671 0.09416,1.51614 0.0812,1.77042 0.121391,1.22168 0.128762,1.50874 0.122081,0.98126"
       id="path8" /><path
       style="fill:none;stroke:#000000;stroke-width:0.264583px;stroke-linecap:butt;stroke-linejoin:miter;stroke-opacity:1"
       d="m 73.463701,60.430164 0.02564,2.01908 -6.9e-5,1.85528 -0.02791,1.84701 0.02339,1.98596 0.08918,2.39606"
       id="path9" /><path
       style="fill:none;stroke:#000000;stroke-width:0.264583px;stroke-linecap:butt;stroke-linejoin:miter;stroke-opacity:1"
       d="m 75.386902,60.234164 -0.01333,2.44699 -0.07578,2.16419 -0.03828,1.84109 -0.03507,1.87561 0.125314,1.69715"
       id="path10" /><path
       style="fill:none;stroke:#000000;stroke-width:0.264583px;stroke-linecap:butt;stroke-linejoin:miter;stroke-opacity:1"
       d="m 76.963271,59.942484 -0.03503,1.58121 -0.111054,1.99423 0.04739,2.33771 0.01508,1.61586 0.04819,1.6231 0.03014,0.77591"
       id="path11" /><path
       style="fill:#e7e21b;fill-opacity:1;stroke:#000000;stroke-width:0.264583px;stroke-linecap:butt;stroke-linejoin:miter;stroke-opacity:1"
       d="m 65.773952,59.286314 -2.64587,-1.32311 -2.562477,-2.19888 -2.031026,-2.62017 -1.414751,-2.76403 -0.907095,-3.61088 -0.09308,-2.98328 0.14369,-3.0266 0.47023,-1.98106 0.873493,-2.63043 1.158573,-2.27526 1.642613,-2.93003 1.842254,-2.33448 1.987031,-2.04052 1.837566,-0.93909 1.831152,-0.16625 1.555475,0.14622 1.343051,-0.32115 2.387513,0.0902 2.684227,0.39299 2.641965,0.38739 2.696126,0.83362 2.705962,1.24296 2.252618,1.47303 1.956778,2.02014 1.300541,2.22218 0.785001,1.89993 0.383637,2.52289 -0.118835,2.97695 -0.442269,2.53327 -0.745728,2.67626 -0.940102,2.65989 -1.400643,2.66565 -1.362485,2.59907 -1.603182,1.94944 -2.090409,1.45555 -2.58929,1.35456 -2.024687,0.59731 -2.282361,0.41064 -2.156082,0.2448 -2.18009,-0.0864 -2.379774,-0.35982 -1.832573,-0.43278 z"
       id="path12" /><path
       style="fill:#000000;fill-opacity:0.999432;stroke:#000000;stroke-width:0.264583px;stroke-linecap:butt;stroke-linejoin:miter;stroke-opacity:1"
       d="m 70.592245,34.858684 c 0,0 0.432196,-0.22694 0.612637,-0.248 0.180441,-0.0211 0.424098,0.0651 0.424098,0.0651 l -7.94e-4,2.23441 -0.01752,3.36778 0.01397,2.79015 0.06222,2.7643 0.0044,1.87981 0.181324,0.26743 0.674399,-0.2494 1.361845,-0.63111 1.359818,-0.31693 1.653421,-0.33237 1.751661,-0.278 0.818398,0.0636 -0.02196,0.68431 -0.176401,1.11117 -0.05748,0.20154 -1.461532,-0.0702 -1.60936,0.19689 -1.436841,0.14918 -0.679405,0.12434 -0.765553,0.31313 -1.63471,0.24201 -1.046456,0.0561 -0.244136,-1.45388 0.09938,-2.20353 -0.281038,-1.64182 -0.08636,-1.39242 -0.06313,-1.21054 0.06679,-1.5055 0.0019,-1.36801 0.02241,-1.42475 0.165431,-1.02794 0.161219,-0.73784 z"
       id="path13"
       sodipodi:nodetypes="czcccccccccccccccccccccccccccccccccc" /><path
       style="fill:#f0f222;fill-opacity:1;stroke:#000000;stroke-width:0.264583px;stroke-linecap:butt;stroke-linejoin:miter;stroke-opacity:1"
       d="m 86.990529,58.066354 1.022697,1.44739 1.231892,1.61122 1.230905,1.87146 0.814779,1.35463 0.688692,0.84128 0.627174,-0.20279 -0.176718,-0.88013 -0.573217,-0.78295 -0.824982,-1.15685 -1.105728,-1.48046 -0.712451,-1.14432 -0.925984,-1.36276 -0.724556,-0.66696 -0.347048,-0.0411 -0.323152,0.14308 -0.05897,0.11635 z"
       id="path14" /><path
       style="fill:#f0f222;fill-opacity:1;stroke:#000000;stroke-width:0.264583px;stroke-linecap:butt;stroke-linejoin:miter;stroke-opacity:1"
       d="m 92.056226,46.275144 -0.205237,0.30906 0.607824,0.63857 0.843122,0.87728 1.111358,0.99639 0.996421,1.09372 0.957609,1.0009 0.751007,0.62649 0.527505,0.3614 0.521242,0.23638 0.212627,-0.44145 -0.299924,-0.66782 -1.119724,-0.80954 -1.046073,-1.06078 -0.964829,-1.11638 -0.834089,-0.80721 -0.815977,-0.68814 -0.523219,-0.39573 -0.299895,-0.25036 z"
       id="path15" /><path
       style="fill:#f0f222;fill-opacity:1;stroke:#000000;stroke-width:0.264583px;stroke-linecap:butt;stroke-linejoin:miter;stroke-opacity:1"
       d="m 92.739973,33.459504 1.542621,0.21526 1.00103,0.18657 0.90415,0.22623 1.111398,0.2545 1.063326,0.38314 1.057725,0.31853 0.735087,0.21566 0.5774,0.14717 0.15546,-0.28299 -0.1616,-0.48525 -0.50961,-0.25426 -0.613487,-0.12866 -0.78705,-0.22055 -1.784919,-0.46835 h -0.01463 l -1.087892,-0.23676 -1.009261,-0.13046 -0.58587,-0.0856 -0.73752,-0.12865 -0.712288,-0.10649 -0.264099,0.0403 -0.04219,0.1439 z"
       id="path16" /><path
       style="fill:#f0f222;fill-opacity:1;stroke:#000000;stroke-width:0.264583px;stroke-linecap:butt;stroke-linejoin:miter;stroke-opacity:1"
       d="m 92.143144,19.467494 -1.021021,0.58765 -1.154346,1.02754 -0.766289,0.81804 -1.115705,0.71506 -1.078635,1.03174 -0.672457,0.29811 -0.504015,0.252 -0.494761,0.61554 0.478854,0.25143 0.926663,-0.49172 0.874189,-0.55785 0.734121,-0.49289 0.703871,-0.63554 0.647567,-0.48706 0.459378,-0.44618 0.754893,-0.41659 0.693918,-0.67677 0.602226,-0.48966 0.543176,-0.29995 0.146196,-0.31489 -0.06178,-0.32639 -0.201197,-0.0537 -0.299268,-0.043 z"
       id="path17" /><path
       style="fill:#f0f222;fill-opacity:1;stroke:#000000;stroke-width:0.264583px;stroke-linecap:butt;stroke-linejoin:miter;stroke-opacity:1"
       d="m 76.861877,14.503044 -0.132551,1.008485 -0.232539,0.955623 -0.253884,0.654386 -0.472204,0.876736 -0.317659,0.7027 -0.363545,0.94266 -0.346679,0.70735 -0.21499,0.8977 -0.0186,0.25903 0.469583,-0.17187 0.430792,-0.69556 0.378342,-1.08688 0.412656,-1.02949 0.578742,-1.26106 0.36295,-0.984596 0.190042,-0.679368 0.144486,-0.905497 -0.150884,-0.458269 -0.243107,-0.04107 z"
       id="path18"
       sodipodi:nodetypes="ccccccccccccccccccccc" /><path
       style="fill:#f0f222;fill-opacity:1;stroke:#000000;stroke-width:0.264583px;stroke-linecap:butt;stroke-linejoin:miter;stroke-opacity:1"
       d="m 61.715111,15.502065 v 0.117068 l 0.446858,1.059571 0.329062,0.742112 0.353317,1.128598 0.35424,1.02051 0.273312,1.02372 0.230759,0.82934 0.08355,0.43126 -0.09401,0.2707 -0.241245,0.0513 -0.206158,-0.15987 -0.258725,-0.64365 -0.306242,-0.79653 -0.285271,-1.12674 -0.34045,-0.96251 -0.182179,-0.57324 -0.296828,-0.921641 -0.149186,-0.475964 -0.204763,-0.600099 -0.08386,-0.330684 0.289986,-0.284755 z"
       id="path19" /><path
       style="fill:#f0f222;fill-opacity:1;stroke:#000000;stroke-width:0.264583px;stroke-linecap:butt;stroke-linejoin:miter;stroke-opacity:1"
       d="m 49.266386,28.464894 -0.04061,0.0602 -0.180158,0.46412 0.404495,0.54439 0.833628,0.28649 0.499092,0.39969 0.345723,0.30242 0.566192,0.39977 0.562026,0.4191 0.408974,0.28072 0.48328,0.27141 0.648425,0.26961 0.224827,0.0213 0.143978,-0.22681 -0.01066,-0.36524 -0.391811,-0.38023 -0.652084,-0.2811 -0.540025,-0.28369 -0.466011,-0.34786 -0.35791,-0.29442 -0.435967,-0.34874 -0.279067,-0.22474 -0.346744,-0.29464 -0.26874,-0.19774 -0.34693,-0.26061 -0.382563,-0.22402 -0.164455,-0.0639 z"
       id="path20" /><path
       style="fill:#f0f222;fill-opacity:1;stroke:#000000;stroke-width:0.264583px;stroke-linecap:butt;stroke-linejoin:miter;stroke-opacity:1"
       d="m 47.452554,48.931994 -0.04197,0.0831 -0.03429,0.33883 0.851154,0.21126 0.453938,0.0842 0.927333,0.26555 0.497623,0.16091 0.722757,0.18401 0.697513,0.15024 0.761881,0.25704 0.489265,0.13837 0.434742,0.0539 0.185849,-0.29999 -0.01405,-0.28711 -0.352618,-0.17263 -0.607692,-0.1004 -0.578644,-0.13101 -0.574424,-0.13992 -0.469934,-0.15319 -0.734637,-0.25152 -0.410689,-0.12011 -0.626903,-0.1127 -0.587537,-0.20198 -0.320072,-0.18219 -0.454596,-0.0639 z"
       id="path21" /><path
       style="fill:#f0f222;fill-opacity:1;stroke:#000000;stroke-width:0.264583px;stroke-linecap:butt;stroke-linejoin:miter;stroke-opacity:1"
       d="m 57.606413,58.333974 -0.08919,0.0743 -0.753776,0.41358 -0.717262,0.47654 -0.479025,0.34527 -0.471231,0.50499 -0.701157,0.54341 -0.906732,0.4517 -0.666356,0.37722 -0.673624,0.36757 -0.512349,0.35723 -0.37287,0.23017 -0.245755,0.17231 -0.384861,0.22743 -0.237077,0.23951 0.136411,0.27674 0.315823,0.11488 0.235942,-0.0426 0.640763,-0.59907 0.659199,-0.33045 0.538284,-0.35752 0.65786,-0.40119 0.473067,-0.32353 0.588124,-0.39234 0.462245,-0.25488 0.475467,-0.33579 0.468421,-0.39717 0.33419,-0.25731 0.338674,-0.23166 0.681805,-0.3364 0.193929,-0.0834 0.407697,-0.23748 0.21567,-0.19676 -0.05996,-0.33775 -0.09474,-0.0703 -0.294751,-0.0219 z"
       id="path22" /><path
       style="fill:#767676;fill-opacity:1;stroke:#000000;stroke-width:0.264583px;stroke-linecap:butt;stroke-linejoin:miter;stroke-opacity:1"
       d="m 106.4973,25.309824 0.0204,0.27395 -0.13353,2.62574 -0.37948,4.01298 -0.50743,4.03964 -0.10032,4.18095 -0.43945,4.01509 -0.47666,2.7998 -0.0421,2.48013 0.0426,2.67184 -0.5252,2.07849 6.13521,0.70965 4.24092,0.25338 3.48162,0.12787 3.60397,0.34333 3.18254,0.17127 3.34928,0.17387 3.43152,0.3615 4.98563,0.24473 4.98312,0.64129 3.34917,0.26077 4.11118,0.66351 1.81074,-0.0434 0.95531,-0.94415 0.28687,-1.1389 0.37967,-1.71984 0.31484,-3.66568 0.44349,-4.19533 0.43406,-3.57178 0.4139,-3.49448 0.7312,-2.99401 0.39152,-3.25765 0.39603,-2.79803 0.17128,-2.05521 -0.1504,-0.34436 -2.35588,-0.0823 -1.8117,-0.2021 -2.71469,-0.0426 -2.45415,-0.25091 -0.7219,-0.25351 -4.88804,-0.70569 -2.93026,-0.26263 -4.13244,10e-4 -4.22469,-0.24993 -3.66688,-0.30163 -2.74252,-0.12866 -3.04668,-0.20668 -2.0342,-0.0245 -1.34734,-0.1781 -1.29326,-0.42052 -1.14554,-0.0442 -1.50433,0.18765 -1.75545,-0.2139 -1.90669,-0.0819 -1.71655,0.19086 z"
       id="path23" /><path
       style="fill:#16dfce;fill-opacity:1;stroke:#000000;stroke-width:0.265;stroke-linecap:butt;stroke-linejoin:miter;stroke-dasharray:none;stroke-opacity:1"
       d="m 113.9423,30.244944 -2.11167,1.50633 -1.26697,2.04817 -0.97222,1.98479 -0.69831,1.85329 -0.55079,2.31376 -0.086,2.42884 0.45802,2.48258 0.46905,2.17943 0.87238,1.83075 0.99569,1.4583 2.13143,1.22412 2.76774,0.34152 3.22832,-0.53538 2.58534,-0.89989 2.60418,-1.51053 1.79333,-2.00209 1.55832,-2.29686 1.21561,-2.8352 0.25369,-2.5946 -0.17021,-2.18621 -1.41688,-3.11072 -1.02216,-1.6127 -2.37078,-1.91862 -2.93652,-1.10798 -3.17866,-0.50808 -2.38521,0.50903 z"
       id="path24" /><path
       style="fill:none;stroke:#0d837a;stroke-width:0.765;stroke-linecap:round;stroke-linejoin:miter;stroke-dasharray:none;stroke-opacity:1"
       d="m 118.68372,29.355744 0.26798,3.88058 0.21744,3.94772 -0.0642,3.65206 0.0439,3.21101 -0.0735,3.21895 -0.25209,3.85279"
       id="path26" /><path
       style="fill:none;stroke:#0d837a;stroke-width:0.765;stroke-linecap:round;stroke-linejoin:miter;stroke-dasharray:none;stroke-opacity:1"
       d="m 128.40892,42.041474 -3.14812,-0.50924 -3.43752,0.11656 -2.8117,-0.25423 -3.26739,-0.21143 -2.88128,-0.25234 -1.9181,-0.086 -2.21353,0.12787"
       id="path27" /><path
       style="fill:#000000;fill-opacity:1;stroke:#000000;stroke-width:0.264583px;stroke-linecap:butt;stroke-linejoin:miter;stroke-opacity:1"
       d="m 121.74704,34.201944 -2.15538,0.20239 -1.84086,-8e-4 -1.26843,-0.16948 -1.30776,-0.0759 -0.34229,1.02235 -0.0709,2.42614 0.0909,2.42775 -0.11479,1.96326 -0.03,1.86549 -0.11889,1.9917 0.0903,1.08324 1.8257,-0.0883 1.17414,0.0416 0.8645,-0.12362 h 1.54154 l 1.28749,-0.0823 1.18171,-0.42566 0.14619,-0.6162 -0.53355,-0.083 -0.81061,0.0434 -0.85543,0.12511 -0.90413,0.0855 -0.97068,-0.0853 -1.1975,-0.0426 -0.70388,-0.0426 -0.67763,-0.058 0.0416,-1.40722 0.0473,-1.22616 v -0.95229 l -0.039,-1.14571 1.24258,-0.034 1.06,-0.12533 1.30169,-0.0421 0.72779,-0.0426 1.24888,0.086 0.61213,-0.22788 -0.0762,-0.62573 -0.58553,-0.43529 h -0.74863 -0.94481 -1.02519 -0.798 -0.80615 l -0.3558,-0.0399 -0.83494,0.11727 0.0161,-0.9424 -0.12547,-0.84877 v -1.59251 l 0.0451,-0.71456 h 0.75082 l 1.35631,-0.0806 h 1.83341 l 1.26615,-0.37093 h 0.95301 z"
       id="path25" /><path
       style="fill:#d21c43;fill-opacity:1;stroke:#000000;stroke-width:0.264583px;stroke-linecap:butt;stroke-linejoin:miter;stroke-opacity:1"
       d="m 134.21344,32.600884 -0.057,0.0169 -0.37059,0.37896 -0.19184,0.41411 -0.0668,0.38525 -0.0428,0.44636 0.0438,0.32335 0.11458,0.3957 0.39295,0.39839 0.40022,0.23306 0.51135,0.1168 0.41017,-0.0248 0.35923,-0.12502 0.28216,-0.24706 0.18771,-0.28185 0.33634,-0.53228 0.0657,-0.33739 -0.0151,-0.45217 -0.0676,-0.34022 -0.17788,-0.3694 -0.19617,-0.24144 -0.25959,-0.25464 -0.33864,-0.13349 -0.38542,-0.0222 -0.4959,0.0172 z"
       id="path28" /><path
       style="fill:none;stroke:#000000;stroke-width:0.264583px;stroke-linecap:butt;stroke-linejoin:miter;stroke-opacity:1"
       d="m 135.37796,37.459074 -0.054,0.50336 -0.0144,0.48687 -0.0943,0.73097 -0.0504,0.64337 -0.0323,0.43531"
       id="path29" /><path
       style="fill:none;stroke:#000000;stroke-width:0.264583px;stroke-linecap:butt;stroke-linejoin:miter;stroke-opacity:1"
       d="m 135.27924,38.843994 0.76375,0.0542 0.93526,-0.002 0.85015,0.0507 0.80962,0.0304 0.9159,0.0883 0.78979,0.11271 0.94889,0.11268 1.15882,0.11197 1.20176,0.0793 0.79298,0.0294 0.7677,0.0307 0.72801,0.12845 0.79041,0.0805 0.34437,0.008 2.67401,0.15329"
       id="path30" /><path
       style="fill:none;stroke:#000000;stroke-width:0.264583px;stroke-linecap:butt;stroke-linejoin:miter;stroke-opacity:1"
       d="m 149.70055,41.082364 -0.0162,-0.34349 -0.0274,-0.48144 0.0268,-0.36089 0.10216,-0.60429 0.0365,-0.71691"
       id="path31" /><path
       style="fill:#000000;fill-opacity:1;stroke:#000000;stroke-width:0.264583px;stroke-linecap:butt;stroke-linejoin:miter;stroke-opacity:1"
       d="m 138.55791,38.348744 -0.14022,0.0956 -0.18809,0.31013 -0.0648,0.45984 0.15183,0.36106 0.42245,0.2563 0.4422,-0.0278 0.41916,-0.41147 0.14222,-0.36649 -0.0387,-0.35346 -0.19158,-0.37582 -0.28454,-0.10124 -0.42709,0.0215 z"
       id="path32"
       sodipodi:nodetypes="cccccccccccccc" /><path
       style="fill:#159f20;fill-opacity:1;stroke:#000000;stroke-width:0.264583px;stroke-linecap:butt;stroke-linejoin:miter;stroke-opacity:1"
       d="m 134.32873,43.779504 -0.20742,0.26511 -0.1838,0.31868 -0.12638,0.28233 -0.0944,0.34634 -0.0142,0.30305 0.035,0.28738 0.21985,0.39227 0.2639,0.16298 0.60305,0.16439 0.47779,-0.0457 0.33332,-0.13991 0.32343,-0.27512 0.17807,-0.25645 0.19426,-0.42369 0.11746,-0.28628 0.13549,-0.32645 -0.0307,-0.37836 -0.0809,-0.28242 -0.14434,-0.23416 -0.12852,-0.15134 -0.20556,-0.15326 -0.16916,-0.0919 -0.20142,-0.0985 -0.25125,-0.0262 -0.24423,0.0331 -0.27373,0.15022 -0.2224,0.18119 -0.18679,0.17596 z"
       id="path33" /><path
       style="fill:#d21c43;fill-opacity:1;stroke:#000000;stroke-width:0.264583px;stroke-linecap:butt;stroke-linejoin:miter;stroke-opacity:1"
       d="m 140.49829,45.068294 -0.0931,0.0335 -0.60402,0.40316 -0.23534,0.38687 -0.1304,0.51625 0.0293,0.36365 0.20044,0.39981 0.41234,0.302 0.7379,0.15633 0.60283,-0.16587 0.53489,-0.24247 0.24418,-0.4925 0.18082,-0.96459 -0.15713,-0.33167 -0.24611,-0.27318 -0.44248,-0.24054 -0.41924,-0.0239 -0.33055,0.0582 z"
       id="path34" /><path
       style="fill:#3347e4;fill-opacity:1;stroke:#000000;stroke-width:0.264583px;stroke-linecap:butt;stroke-linejoin:miter;stroke-opacity:1"
       d="m 138.96222,52.095294 -0.003,0.0218 -0.21977,0.52508 -0.0733,0.49618 0.0574,0.42869 0.1271,0.47339 0.1603,0.27903 0.53239,0.40754 0.57485,0.19658 0.46531,0.0211 0.66572,-0.0774 0.72349,-0.43568 0.30337,-0.40096 0.27769,-0.50603 0.10919,-0.54595 -0.022,-0.53009 -0.21916,-0.40036 -0.47032,-0.39662 -0.37319,-0.16643 -0.4933,-0.16355 -0.51717,-0.0249 -0.51646,0.0464 -0.4236,0.26554 -0.39766,0.22123 -0.29183,0.31192 z"
       id="path35" /><path
       style="fill:#000000;fill-opacity:1;stroke:#000000;stroke-width:0.264583px;stroke-linecap:butt;stroke-linejoin:miter;stroke-opacity:1"
       d="m 140.72542,53.153184 -0.47728,-0.29815 -0.31657,-0.31439 -0.23443,-0.24744 -0.41327,-0.44249 -0.23403,-0.28775 -0.44125,-0.67084 -0.31674,-0.43851 -0.17701,-0.26927 -0.006,-0.15968 0.10113,-0.11781 0.20307,-0.005 0.33075,0.0549 0.28839,0.18936 0.19796,0.2425 0.23137,0.35796 0.30306,0.34457 0.23317,0.33679 0.24646,0.34205 0.34722,0.4418 0.21516,0.32791 0.13182,0.27348 -1e-4,0.29344 -0.0374,0.0845 z"
       id="path36" /><path
       style="fill:#df4f68;fill-opacity:1;stroke:#000000;stroke-width:0.264583px;stroke-linecap:butt;stroke-linejoin:miter;stroke-opacity:1"
       d="m 155.8404,66.796994 1.66097,-1.56496 1.58411,-1.45034 2.14926,-1.66602 3.52962,-2.74863 2.56525,-2.23542 2.46652,-1.86939 2.42753,-2.00171 2.72515,-2.24706 1.86718,-1.91857 1.74419,-1.22643 0.77023,-0.6032 0.17036,-0.79338 0.52236,-0.659 0.49836,-0.54268 0.7077,-0.29729 0.19645,0.0587 0.54078,0.36374 0.27997,0.5003 0.0359,0.0747 0.36547,0.11698 0.40337,-0.0398 0.36655,-0.18482 0.24246,-0.22722 0.18019,-0.0626 0.2288,-0.0207 0.32124,0.18455 0.0998,0.10378 0.34478,0.18843 0.71703,-0.13041 0.40278,-0.0344 0.51677,-0.27839 0.39181,-0.30478 0.20444,-0.0862 0.35668,0.30725 0.34252,0.0843 0.71675,-0.0426 0.50275,-0.13022 0.33351,-0.0845 0.27702,-0.0426 h 0.4107 l 0.46125,0.0692 0.0807,0.20146 0.018,0.60644 0.0789,1.29577 1.05376,1.09899 0.77681,1.03423 1.16954,1.4024 0.99369,1.25445 0.90987,0.99285 1.08739,1.1145 1.10112,1.0732 1.24629,1.51284 0.99569,1.39906 0.98389,1.21158 0.83561,1.23744 0.99925,0.97682 1.03321,1.0542 0.8741,0.86794 0.96891,0.92451 0.67379,0.81073 0.9083,0.96546 0.66831,0.85029 1.30506,1.28021 0.62638,0.6386 0.20961,0.53312 0.0449,0.39183 -0.2322,0.14049 -0.57003,-0.13845 -1.83389,-0.23412 -2.44198,0.003 -1.19337,-0.13586 -1.73447,0.0506 -0.58275,0.0118 -4.0898,-0.0811 -2.001,0.0503 -2.18037,-0.12477 -1.38192,-0.0399 -1.92321,-0.0816 -1.61919,-0.0806 -1.01466,-0.0973 -1.06398,-0.0118 -0.68777,0.12219 -1.33878,-0.0329 -1.8908,-0.0232 -1.6211,0.0256 -0.84709,0.0119 -1.65804,0.059 -1.2493,-0.15729 -1.12538,-0.079 -1.2758,-0.18309 -0.93583,-0.20156 -0.77154,-0.12228 -0.85427,-0.10651 -1.22692,-0.1608 -1.16993,-0.0778 -1.40145,-0.13562 -1.1276,-0.18461 h -1.31249 l -0.93368,-0.0203 -1.03949,-0.17599 -0.89176,-0.0663 -0.69737,-0.12001 -1.50691,-0.13637 -1.42036,0.0324 -1.04942,-0.12042 -0.8124,-0.0969 -0.97776,-0.22176 z"
       id="path40" /><path
       style="fill:#7ee3ff;fill-opacity:0.690776;stroke:#000000;stroke-width:0.264583px;stroke-linecap:butt;stroke-linejoin:miter;stroke-opacity:1"
       d="m 179.45185,46.545194 -0.10807,-1.41968 0.0225,-1.92398 0.0866,-1.11836 0.0683,-1.29813 -0.0213,-0.87222 0.0819,-2.70555 0.0217,-0.91254 0.0677,-1.12177 0.14252,-1.10461 0.0127,-0.7669 0.19102,-1.76627 -0.0963,-0.88819 -0.0655,-0.89697 0.0798,-1.03899 0.24841,-1.53799 0.048,-1.1483 0.0343,-2.48062 -0.0813,-1.17741 -0.0203,-1.39713 0.107,-1.85314 -0.0432,-2.122338 -0.0107,-1.645137 -0.032,-1.050435 0.0241,-1.158317 -0.18329,-1.15911 -1.13595,-1.897034 -0.7059,-1.3646378 -0.46242,-1.04176 -1.00349,-1.972181 -0.53404,-1.018532 -0.41309,-0.785891 0.54558,0.385701 0.86396,0.391427 0.94211,0.426189 1.03742,0.422208 1.03289,0.424755 1.11795,0.282606 0.94302,0.240213 1.01722,0.16814 1.13969,0.10147 1.14736,-0.02389 1.05052,-0.162234 1.43367,-0.260633 0.82453,-0.376685 0.67192,-0.29759 0.68712,-0.185068 1.26146,-0.712597 0.82452,-0.415959 0.45567,-0.120296 0.641,-0.166291 -0.13859,0.836803 -0.5358,1.479966 -0.39891,1.245878 -0.30719,1.119917 -0.42848,1.236639 -0.40084,1.0612648 -0.43106,1.091703 -0.24322,0.645387 0.0328,1.609532 -0.0905,1.013965 0.0215,0.781355 -0.0871,0.934931 -0.0426,0.856126 -0.0325,0.90619 0.002,2.02031 0.0434,1.13918 0.0768,1.25155 0.0546,1.18922 -0.0541,1.09792 0.0136,0.95353 0.0118,0.76788 8e-4,1.55646 -0.0739,1.08777 v 0.93864 l 0.0112,0.92139 0.0586,1.08033 -0.0558,1.50155 0.16833,1.05611 0.0109,2.11327 -0.0679,2.28677 0.0548,0.88484 -0.0775,0.98495 0.0122,1.0325 0.0233,1.48354 -0.0732,0.73177 0.0324,0.43877 -0.42926,-0.0542 -0.3841,-0.009 -0.43658,0.10096 -0.51948,0.0773 -0.47974,0.0665 -0.42454,0.0459 -0.31892,-0.0442 -0.25026,-0.18383 -0.12984,-0.0915 -0.16312,-0.0371 -0.22621,0.0863 -0.2498,0.24739 -0.5455,0.23855 -0.7233,0.14183 -0.41767,0.0608 -0.35028,-0.13677 -0.45113,-0.28984 -0.38219,0.0384 -0.28059,0.19161 -0.34969,0.22275 -0.13283,0.0266 -0.41513,-0.0243 -0.19611,-0.17204 -0.22375,-0.3813 -0.20432,-0.21984 -0.32421,-0.17848 -0.28643,-0.094 -0.31984,0.0628 -0.39174,0.23563 -0.20587,0.25865 -0.18923,0.24057 -0.25756,0.29883 -0.28048,0.3406 z"
       id="path41" /><path
       style="fill:#b1ecff;fill-opacity:0.690776;stroke:#000000;stroke-width:0.264583px;stroke-linecap:butt;stroke-linejoin:miter;stroke-opacity:1"
       d="m 176.75262,3.0658552 0.74635,-0.140438 0.59403,-0.04818 0.6416,-0.0059 0.84735,-0.064 0.96598,-0.04309 0.64662,-0.07387 0.48129,-0.01778 0.81704,0.02914 0.43727,-0.01656 0.54044,-0.05805 0.52864,-0.03804 0.809,-0.03525 0.71521,0.01304 0.40373,-0.01667 1.76938,0.06774 0.79406,0.0019 0.71295,-5.29e-4 0.69391,0.03574 0.52434,0.03719 0.61187,0.04258 0.65455,0.04033 0.39388,0.07547 0.50039,0.06739 0.54677,0.112517 0.2322,0.172635 0.0863,0.192784 0.0225,0.403656 -0.1228,0.263541 -0.68568,0.205449 -0.5771,0.160573 -0.57162,0.278035 -0.46311,0.266057 -0.45806,0.2423 -0.5233,0.226999 -0.54115,0.222123 -0.75184,0.313391 -0.53989,0.211733 -0.48161,0.155183 -0.46929,0.09669 -0.54163,0.09728 -0.3896,0.05031 -0.65006,0.130369 -0.637,0.05173 -0.50542,-0.03817 -0.15981,-0.01617 -0.76438,-0.06936 -0.45701,-0.03187 -0.53202,-0.06071 -0.53168,-0.109932 -0.50602,-0.120046 -0.47098,-0.129694 -0.46463,-0.132887 -0.52349,-0.129672 -0.48764,-0.194442 -0.51402,-0.185944 -0.54039,-0.239019 -0.65424,-0.297064 -0.40516,-0.187682 -0.4748,-0.192506 -0.40287,-0.179938 -0.47615,-0.231261 -0.44395,-0.230042 -5.3e-4,-0.394814 0.0966,-0.21785 0.49465,-0.189984 z"
       id="path42" /><path
       style="fill:#000000;fill-opacity:1;stroke:#000000;stroke-width:0.264583px;stroke-linecap:butt;stroke-linejoin:miter;stroke-opacity:1"
       d="m 178.31385,65.183394 0.32668,-2.72039 0.45272,-2.16212 0.15239,-2.76254 0.12497,-1.36393 0.28569,-1.62335 0.092,-1.55569 0.29103,-1.11097 0.10175,-0.25829 0.69785,-0.024 0.50044,0.41464 -0.12587,1.51942 -0.13968,1.35245 -0.13948,1.0151 -0.10576,1.08184 -0.13983,0.80963 -0.24032,0.53818 0.59244,-0.43211 0.35142,-0.51116 0.62934,-0.63828 0.72596,-0.79229 0.55624,-0.75102 0.76651,-0.76488 0.55864,-0.71739 0.89628,-1.03902 0.45561,-0.67543 0.39249,-0.5163 0.44052,-0.18732 0.24663,0.11718 0.0837,0.30019 v 0.47189 l -0.11526,0.33089 -0.42512,0.50346 -0.33644,0.69207 -0.45374,0.63732 -0.80075,0.90283 -0.59859,0.90128 -0.5743,0.53207 -0.60569,0.48047 -0.71394,0.93204 -0.60686,0.46275 -0.0294,0.29237 0.66746,0.65744 0.59,0.58889 0.52299,0.5062 0.69983,0.73773 0.49659,0.52432 0.58233,0.62057 0.51215,0.68314 0.65198,0.58018 0.47773,0.61406 0.054,0.702 -0.43213,0.29313 -0.39356,-0.33369 -0.59884,-0.55033 -0.78974,-0.89009 -0.76198,-0.8795 -0.94662,-0.56422 -0.626,-0.57561 -0.95818,-0.89484 -0.70433,-0.4364 -0.53042,-0.2709 -0.2208,0.55097 -0.053,0.66158 -0.22948,1.10574 -0.11038,0.85682 0.0515,0.89385 -0.12277,0.6027 -0.0125,0.57645 -0.53117,0.37114 -0.28354,0.14519 -0.43386,-0.26376 z"
       id="path43" /><path
       style="fill:#7ee3ff;fill-opacity:0.690776;stroke:#000000;stroke-width:0.264583px;stroke-linecap:butt;stroke-linejoin:miter;stroke-opacity:1"
       d="m 16.043622,3.4548032 0.553821,0.528601 0.828943,0.503129 0.693786,0.304355 0.64769,0.183327 0.667411,0.105582 1.299383,0.169077 1.108596,0.165367 0.905567,-0.03172 1.220186,-0.397626 0.779302,-0.443156 0.781776,-0.687403 0.696743,-0.621665 0.482814,-0.643438 -0.03849,-0.53185 -0.137908,-0.130765 -1.154849,0.0949 -0.677479,0.03041 -1.658174,0.430496 -0.980602,0.171498 -1.171463,0.209711 -0.77926,0.07535 -0.994566,0.124976 -1.035855,0.06306 -0.808278,0.0589 -0.867686,0.138393 z"
       id="path44" /></g></svg>
