<?xml version="1.0" encoding="UTF-8" standalone="no"?>
<!-- Created with Inkscape (http://www.inkscape.org/) -->

<svg
   width="210mm"
   height="297mm"
   viewBox="0 0 210 297"
   version="1.1"
   id="svg1"
   inkscape:version="1.3 (1:1.3+202307231459+0e150ed6c4)"
   sodipodi:docname="icon.svg"
   inkscape:export-filename="icon.png"
   inkscape:export-xdpi="4.7811766"
   inkscape:export-ydpi="4.7811766"
   xmlns:inkscape="http://www.inkscape.org/namespaces/inkscape"
   xmlns:sodipodi="http://sodipodi.sourceforge.net/DTD/sodipodi-0.dtd"
   xmlns="http://www.w3.org/2000/svg"
   xmlns:svg="http://www.w3.org/2000/svg">
  <sodipodi:namedview
     id="namedview1"
     pagecolor="#505050"
     bordercolor="#eeeeee"
     borderopacity="1"
     inkscape:showpageshadow="0"
     inkscape:pageopacity="0"
     inkscape:pagecheckerboard="0"
     inkscape:deskcolor="#d1d1d1"
     inkscape:document-units="mm"
     inkscape:zoom="1.0973349"
     inkscape:cx="-35.085005"
     inkscape:cy="344.47096"
     inkscape:window-width="3840"
     inkscape:window-height="2072"
     inkscape:window-x="0"
     inkscape:window-y="0"
     inkscape:window-maximized="1"
     inkscape:current-layer="layer1"
     inkscape:export-bgcolor="#00000000" />
  <defs
     id="defs1" />
  <g
     inkscape:label="Layer 1"
     inkscape:groupmode="layer"
     id="layer1">
    <rect
       style="fill:#000000;fill-opacity:0;stroke:none;stroke-width:0.228873;stroke-linejoin:round;stroke-dasharray:none;stroke-opacity:1;paint-order:markers fill stroke"
       id="rect41"
       width="170"
       height="170"
       x="20.940639"
       y="61.706905"
       rx="0.16886131"
       ry="0.16886131" />
    <g
       id="g41"
       transform="translate(16.816012,-41.174934)">
      <rect
         style="fill:#a8cacc;fill-opacity:1;stroke:#97bbc1;stroke-width:0.769872;stroke-linejoin:round;stroke-opacity:1;paint-order:markers fill stroke"
         id="rect5"
         width="32.638409"
         height="80.25206"
         x="73.406784"
         y="110.87254"
         rx="0.16886131"
         ry="0.16886131" />
      <ellipse
         style="fill:#a8cacc;fill-opacity:1;stroke:#97bbc1;stroke-width:0.765;stroke-linejoin:round;stroke-opacity:1;paint-order:markers fill stroke"
         id="path5"
         cx="89.730095"
         cy="110.99001"
         rx="16.324177"
         ry="5.6660118" />
      <path
         d="m 133.00894,242.85133 a 44.340813,5.2256308 0 0 1 -1.18856,0.64337 44.340813,5.2256308 0 0 1 -2.21072,0.69866 44.340813,5.2256308 0 0 1 -3.03186,0.65474 44.340813,5.2256308 0 0 1 -3.7915,0.59687 44.340813,5.2256308 0 0 1 -4.47363,0.5271 44.340813,5.2256308 0 0 1 -5.06429,0.44648 44.340813,5.2256308 0 0 1 -5.55263,0.3576 44.340813,5.2256308 0 0 1 -5.9278,0.26045 44.340813,5.2256308 0 0 1 -6.181536,0.15865 44.340813,5.2256308 0 0 1 -6.310726,0.0532 44.340813,5.2256308 0 0 1 -6.310209,-0.0532 44.340813,5.2256308 0 0 1 -6.182052,-0.15865 44.340813,5.2256308 0 0 1 -5.927287,-0.26045 44.340813,5.2256308 0 0 1 -5.552633,-0.3576 44.340813,5.2256308 0 0 1 -5.064807,-0.44648 44.340813,5.2256308 0 0 1 -4.473628,-0.5271 44.340813,5.2256308 0 0 1 -3.790983,-0.59687 44.340813,5.2256308 0 0 1 -3.031857,-0.65474 44.340813,5.2256308 0 0 1 -2.211234,-0.69866 44.340813,5.2256308 0 0 1 -1.066602,-0.57774 48.152756,46.79958 0 0 0 3.140377,5.58932 48.152756,46.79958 0 0 0 4.117061,5.34541 48.152756,46.79958 0 0 0 4.858102,4.72167 48.152756,46.79958 0 0 0 5.499922,4.00131 48.152756,46.79958 0 0 0 6.030123,3.20032 48.152756,46.79958 0 0 0 6.437333,2.33319 48.152756,46.79958 0 0 0 6.713286,1.41955 48.152756,46.79958 0 0 0 6.852811,0.47646 48.152756,46.79958 0 0 0 2.362647,-0.0563 48.152756,46.79958 0 0 0 2.356962,-0.16898 48.152756,46.79958 0 0 0 2.34611,-0.28112 48.152756,46.79958 0 0 0 2.32854,-0.39274 48.152756,46.79958 0 0 0 2.3058,-0.50333 48.152756,46.79958 0 0 0 2.2779,-0.61236 48.152756,46.79958 0 0 0 2.24431,-0.72089 48.152756,46.79958 0 0 0 2.20503,-0.82682 48.152756,46.79958 0 0 0 2.16059,-0.93069 48.152756,46.79958 0 0 0 2.1115,-1.0325 48.152756,46.79958 0 0 0 2.05621,-1.13223 48.152756,46.79958 0 0 0 1.99677,-1.22887 48.152756,46.79958 0 0 0 1.93219,-1.32291 48.152756,46.79958 0 0 0 1.86345,-1.41335 48.152756,46.79958 0 0 0 1.78955,-1.50017 48.152756,46.79958 0 0 0 1.71204,-1.58388 48.152756,46.79958 0 0 0 1.62936,-1.66347 48.152756,46.79958 0 0 0 1.54409,-1.73943 48.152756,46.79958 0 0 0 1.45418,-1.81074 48.152756,46.79958 0 0 0 1.36064,-1.87844 48.152756,46.79958 0 0 0 1.26452,-1.94045 48.152756,46.79958 0 0 0 1.16479,-1.99884 48.152756,46.79958 0 0 0 1.06298,-2.05155 48.152756,46.79958 0 0 0 0.16537,-0.36277 z"
         style="fill:#348834;fill-opacity:1;stroke:#97bbc1;stroke-width:0.765;stroke-linejoin:round;stroke-opacity:1;paint-order:markers fill stroke"
         id="path33" />
      <path
         d="m 73.522127,179.10741 a 48.152756,46.79958 0 0 0 -6.07043,2.51303 48.152756,46.79958 0 0 0 -5.66012,3.29644 48.152756,46.79958 0 0 0 -5.143355,4.01732 48.152756,46.79958 0 0 0 -4.529956,4.66277 48.152756,46.79958 0 0 0 -3.831291,5.22087 48.152756,46.79958 0 0 0 -3.061312,5.68079 48.152756,46.79958 0 0 0 -2.232938,6.03477 48.152756,46.79958 0 0 0 -1.363741,6.27455 48.152756,46.79958 0 0 0 -0.468189,6.39651 48.152756,46.79958 0 0 0 0.489893,6.66006 48.152756,46.79958 0 0 0 1.460376,6.52467 48.152756,46.79958 0 0 0 2.030883,5.29218 44.340813,5.2256308 0 0 1 0.24443,-0.40256 44.340813,5.2256308 0 0 1 1.344621,-0.72812 44.340813,5.2256308 0 0 1 2.211234,-0.69866 44.340813,5.2256308 0 0 1 3.031857,-0.65474 44.340813,5.2256308 0 0 1 3.790983,-0.59687 44.340813,5.2256308 0 0 1 4.473628,-0.5271 44.340813,5.2256308 0 0 1 5.064807,-0.44648 44.340813,5.2256308 0 0 1 5.552633,-0.3576 44.340813,5.2256308 0 0 1 5.927287,-0.26045 44.340813,5.2256308 0 0 1 6.182052,-0.15865 44.340813,5.2256308 0 0 1 6.310209,-0.0532 44.340813,5.2256308 0 0 1 2.245857,0.007 44.340813,5.2256308 0 0 1 2.240174,0.0202 44.340813,5.2256308 0 0 1 2.228804,0.0336 44.340813,5.2256308 0 0 1 2.211235,0.0465 44.340813,5.2256308 0 0 1 2.187982,0.0599 44.340813,5.2256308 0 0 1 2.16007,0.0729 44.340813,5.2256308 0 0 1 2.12597,0.0858 44.340813,5.2256308 0 0 1 2.08618,0.0982 44.340813,5.2256308 0 0 1 2.04122,0.11059 44.340813,5.2256308 0 0 1 1.99109,0.12247 44.340813,5.2256308 0 0 1 1.93632,0.13436 44.340813,5.2256308 0 0 1 1.87585,0.14573 44.340813,5.2256308 0 0 1 1.81074,0.15658 44.340813,5.2256308 0 0 1 1.74098,0.16743 44.340813,5.2256308 0 0 1 1.66708,0.17725 44.340813,5.2256308 0 0 1 1.58854,0.18759 44.340813,5.2256308 0 0 1 1.50585,0.19637 44.340813,5.2256308 0 0 1 1.42007,0.20515 44.340813,5.2256308 0 0 1 1.32963,0.21343 44.340813,5.2256308 0 0 1 1.2361,0.22065 44.340813,5.2256308 0 0 1 1.13947,0.22841 44.340813,5.2256308 0 0 1 1.04024,0.23461 44.340813,5.2256308 0 0 1 0.93793,0.24082 44.340813,5.2256308 0 0 1 0.83354,0.24546 44.340813,5.2256308 0 0 1 0.72657,0.25063 44.340813,5.2256308 0 0 1 0.61805,0.25477 44.340813,5.2256308 0 0 1 0.50798,0.25786 44.340813,5.2256308 0 0 1 0.39636,0.26045 44.340813,5.2256308 0 0 1 0.2837,0.26252 44.340813,5.2256308 0 0 1 0.14005,0.21652 48.152756,46.79958 0 0 0 0.27182,-0.59635 48.152756,46.79958 0 0 0 0.85059,-2.14302 48.152756,46.79958 0 0 0 0.74156,-2.18126 48.152756,46.79958 0 0 0 0.62993,-2.21382 48.152756,46.79958 0 0 0 0.51832,-2.2412 48.152756,46.79958 0 0 0 0.40359,-2.26343 48.152756,46.79958 0 0 0 0.28939,-2.27945 48.152756,46.79958 0 0 0 0.17415,-2.29082 48.152756,46.79958 0 0 0 0.0579,-2.2965 48.152756,46.79958 0 0 0 -0.43873,-6.29264 48.152756,46.79958 0 0 0 -1.30586,-6.17843 48.152756,46.79958 0 0 0 -2.14871,-5.95157 48.152756,46.79958 0 0 0 -2.95227,-5.61672 48.152756,46.79958 0 0 0 -3.70314,-5.18004 48.152756,46.79958 0 0 0 -4.38577,-4.64881 48.152756,46.79958 0 0 0 -4.98885,-4.03387 48.152756,46.79958 0 0 0 -5.50199,-3.34449 48.152756,46.79958 0 0 0 -5.91488,-2.59571 16.324177,5.6660118 0 0 1 -0.43667,1.25212 16.324177,5.6660118 0 0 1 -1.2237,1.18752 16.324177,5.6660118 0 0 1 -1.95026,1.06402 16.324177,5.6660118 0 0 1 -2.579691,0.88832 16.324177,5.6660118 0 0 1 -3.082499,0.66817 16.324177,5.6660118 0 0 1 -3.431315,0.41445 16.324177,5.6660118 0 0 1 -3.611149,0.14108 16.324177,5.6660118 0 0 1 -3.632337,-0.14211 16.324177,5.6660118 0 0 1 -3.450435,-0.4191 16.324177,5.6660118 0 0 1 -3.095419,-0.67489 16.324177,5.6660118 0 0 1 -2.584855,-0.89711 16.324177,5.6660118 0 0 1 -1.944584,-1.07435 16.324177,5.6660118 0 0 1 -1.207678,-1.19734 16.324177,5.6660118 0 0 1 -0.409277,-1.26091 16.324177,5.6660118 0 0 1 0.03566,-0.20464 z"
         style="fill:#a8cacc;fill-opacity:1;stroke:#97bbc1;stroke-width:0.765;stroke-linejoin:round;stroke-opacity:1;paint-order:markers fill stroke"
         id="path30" />
      <path
         d="m 133.49454,241.71031 a 44.323406,5.2257036 0 0 0 -0.13998,-0.21653 44.323406,5.2257036 0 0 0 -0.2836,-0.26252 44.323406,5.2257036 0 0 0 -0.3962,-0.26046 44.323406,5.2257036 0 0 0 -0.50778,-0.25786 44.323406,5.2257036 0 0 0 -0.6178,-0.25477 44.323406,5.2257036 0 0 0 -0.7263,-0.25064 44.323406,5.2257036 0 0 0 -0.83321,-0.24546 44.323406,5.2257036 0 0 0 -0.93755,-0.24082 44.323406,5.2257036 0 0 0 -1.03984,-0.23461 44.323406,5.2257036 0 0 0 -1.13902,-0.22842 44.323406,5.2257036 0 0 0 -1.23562,-0.22065 44.323406,5.2257036 0 0 0 -1.3291,-0.21344 44.323406,5.2257036 0 0 0 -1.41952,-0.20514 44.323406,5.2257036 0 0 0 -1.50526,-0.19638 44.323406,5.2257036 0 0 0 -1.58792,-0.18759 44.323406,5.2257036 0 0 0 -1.66642,-0.17725 44.323406,5.2257036 0 0 0 -1.74029,-0.16744 44.323406,5.2257036 0 0 0 -1.81004,-0.15658 44.323406,5.2257036 0 0 0 -1.87511,-0.14573 44.323406,5.2257036 0 0 0 -1.93555,-0.13437 44.323406,5.2257036 0 0 0 -1.99031,-0.12246 44.323406,5.2257036 0 0 0 -2.04042,-0.1106 44.323406,5.2257036 0 0 0 -2.08537,-0.0982 44.323406,5.2257036 0 0 0 -2.12513,-0.0858 44.323406,5.2257036 0 0 0 -2.15922,-0.0729 44.323406,5.2257036 0 0 0 -2.187126,-0.0599 44.323406,5.2257036 0 0 0 -2.210366,-0.0465 44.323406,5.2257036 0 0 0 -2.227929,-0.0336 44.323406,5.2257036 0 0 0 -2.239295,-0.0202 44.323406,5.2257036 0 0 0 -2.244975,-0.007 44.323406,5.2257036 0 0 0 -6.307731,0.0532 44.323406,5.2257036 0 0 0 -6.179625,0.15865 44.323406,5.2257036 0 0 0 -5.92496,0.26046 44.323406,5.2257036 0 0 0 -5.550454,0.3576 44.323406,5.2257036 0 0 0 -5.062819,0.44649 44.323406,5.2257036 0 0 0 -4.471872,0.5271 44.323406,5.2257036 0 0 0 -3.789494,0.59688 44.323406,5.2257036 0 0 0 -3.030667,0.65475 44.323406,5.2257036 0 0 0 -2.210366,0.69867 44.323406,5.2257036 0 0 0 -1.344092,0.72813 44.323406,5.2257036 0 0 0 -0.244335,0.40257 48.133852,46.800232 0 0 0 0.369859,0.96429 48.133852,46.800232 0 0 0 0.152386,0.27131 44.323406,5.2257036 0 0 0 1.066182,0.57775 44.323406,5.2257036 0 0 0 2.210366,0.69867 44.323406,5.2257036 0 0 0 3.030667,0.65475 44.323406,5.2257036 0 0 0 3.789494,0.59688 44.323406,5.2257036 0 0 0 4.471872,0.5271 44.323406,5.2257036 0 0 0 5.062819,0.44649 44.323406,5.2257036 0 0 0 5.550454,0.3576 44.323406,5.2257036 0 0 0 5.92496,0.26046 44.323406,5.2257036 0 0 0 6.179625,0.15865 44.323406,5.2257036 0 0 0 6.307731,0.0532 44.323406,5.2257036 0 0 0 6.308248,-0.0532 44.323406,5.2257036 0 0 0 6.179103,-0.15865 44.323406,5.2257036 0 0 0 5.92548,-0.26046 44.323406,5.2257036 0 0 0 5.55045,-0.3576 44.323406,5.2257036 0 0 0 5.0623,-0.44649 44.323406,5.2257036 0 0 0 4.47188,-0.5271 44.323406,5.2257036 0 0 0 3.79001,-0.59688 44.323406,5.2257036 0 0 0 3.03067,-0.65475 44.323406,5.2257036 0 0 0 2.20985,-0.69867 44.323406,5.2257036 0 0 0 1.18809,-0.64338 48.133852,46.800232 0 0 0 0.52017,-1.14103 z"
         style="fill:#24dc33;fill-opacity:1;stroke:#1fce2e;stroke-width:0.769168;stroke-linejoin:round;stroke-opacity:1;paint-order:markers fill stroke"
         id="path32" />
      <path
         d="m 55.05869,248.97695 a 52.336234,56.978169 87.341227 0 1 -3.141087,-6.81092 52.336234,56.978169 87.341227 0 1 -2.064967,-7.20849 52.336234,56.978169 87.341227 0 1 -0.924461,-7.41356 52.336234,56.978169 87.341227 0 1 0.233453,-7.46687 52.336234,56.978169 87.341227 0 1 1.388023,-7.36885 52.336234,56.978169 87.341227 0 1 2.513311,-7.12061 52.336234,56.978169 87.341227 0 1 3.587826,-6.72772 52.336234,56.978169 87.341227 0 1 4.58945,-6.19754 52.336234,56.978169 87.341227 0 1 5.496969,-5.54074 52.336234,56.978169 87.341227 0 1 4.518691,-3.42649 44.480989,50.132728 87.341227 0 0 -0.391241,0.16469 44.480989,50.132728 87.341227 0 0 -6.531083,3.95384 44.480989,50.132728 87.341227 0 0 -5.765248,4.80573 44.480989,50.132728 87.341227 0 0 -4.857293,5.53903 44.480989,50.132728 87.341227 0 0 -3.829783,6.13567 44.480989,50.132728 87.341227 0 0 -2.708289,6.58097 44.480989,50.132728 87.341227 0 0 -1.51917,6.86496 44.480989,50.132728 87.341227 0 0 -0.293901,6.97976 44.480989,50.132728 87.341227 0 0 0.939455,6.92202 44.480989,50.132728 87.341227 0 0 2.148846,6.69462 44.480989,50.132728 87.341227 0 0 3.306549,6.30211 44.480989,50.132728 87.341227 0 0 3.30394,4.33839 z"
         style="fill:#daeaea;fill-opacity:0.521963;stroke:none;stroke-width:0.727015;stroke-linejoin:round;stroke-opacity:0.454008;paint-order:markers fill stroke"
         id="path17" />
      <ellipse
         style="fill:#c6dede;fill-opacity:0.502538;stroke:none;stroke-width:0.765;stroke-linejoin:round;stroke-opacity:0.454008;paint-order:markers fill stroke"
         id="path36"
         cx="65.698509"
         cy="253.5024"
         rx="1.2107838"
         ry="1.0597764" />
      <ellipse
         style="fill:#c6dede;fill-opacity:0.502538;stroke:none;stroke-width:0.765;stroke-linejoin:round;stroke-opacity:0.454008;paint-order:markers fill stroke"
         id="path36-8"
         cx="90.904533"
         cy="255.32436"
         rx="1.2107838"
         ry="1.0597764" />
      <ellipse
         style="fill:#c6dede;fill-opacity:0.502538;stroke:none;stroke-width:0.765;stroke-linejoin:round;stroke-opacity:0.454008;paint-order:markers fill stroke"
         id="path36-0"
         cx="87.464951"
         cy="265.6431"
         rx="1.2107838"
         ry="1.0597764" />
      <ellipse
         style="fill:#c6dede;fill-opacity:0.502538;stroke:none;stroke-width:0.765;stroke-linejoin:round;stroke-opacity:0.454008;paint-order:markers fill stroke"
         id="path36-5"
         cx="76.617035"
         cy="264.84937"
         rx="1.2107838"
         ry="1.0597764" />
      <ellipse
         style="fill:#c6dede;fill-opacity:0.502538;stroke:none;stroke-width:0.765;stroke-linejoin:round;stroke-opacity:0.454008;paint-order:markers fill stroke"
         id="path36-89"
         cx="103.33995"
         cy="261.93893"
         rx="1.2107838"
         ry="1.0597764" />
      <ellipse
         style="fill:#c6dede;fill-opacity:0.502538;stroke:none;stroke-width:0.765;stroke-linejoin:round;stroke-opacity:0.454008;paint-order:markers fill stroke"
         id="path36-1"
         cx="122.5925"
         cy="250.58748"
         rx="1.2107838"
         ry="1.0597764" />
      <ellipse
         style="fill:#c6dede;fill-opacity:0.502538;stroke:none;stroke-width:0.765;stroke-linejoin:round;stroke-opacity:0.454008;paint-order:markers fill stroke"
         id="path36-15"
         cx="116.18692"
         cy="253.10156"
         rx="1.2107838"
         ry="1.0597764" />
      <ellipse
         style="fill:#c6dede;fill-opacity:0.502538;stroke:none;stroke-width:0.765;stroke-linejoin:round;stroke-opacity:0.454008;paint-order:markers fill stroke"
         id="path36-65"
         cx="51.825844"
         cy="248.73836"
         rx="1.2107838"
         ry="1.0597764" />
      <ellipse
         style="fill:#c6dede;fill-opacity:0.502538;stroke:none;stroke-width:0.765;stroke-linejoin:round;stroke-opacity:0.454008;paint-order:markers fill stroke"
         id="path36-7"
         cx="61.347916"
         cy="255.74126"
         rx="1.2107838"
         ry="1.0597764" />
      <ellipse
         style="fill:#c6dede;fill-opacity:0.502538;stroke:none;stroke-width:0.765;stroke-linejoin:round;stroke-opacity:0.454008;paint-order:markers fill stroke"
         id="path36-54"
         cx="69.245483"
         cy="260.7916"
         rx="1.2107838"
         ry="1.0597764" />
      <ellipse
         style="fill:#c6dede;fill-opacity:0.502538;stroke:none;stroke-width:0.765;stroke-linejoin:round;stroke-opacity:0.454008;paint-order:markers fill stroke"
         id="path36-19"
         cx="105.46027"
         cy="251.06145"
         rx="1.2107838"
         ry="1.0597764" />
      <ellipse
         style="fill:#c6dede;fill-opacity:0.502538;stroke:none;stroke-width:0.765;stroke-linejoin:round;stroke-opacity:0.454008;paint-order:markers fill stroke"
         id="path36-4"
         cx="112.69028"
         cy="261.66458"
         rx="1.2107838"
         ry="1.0597764" />
      <ellipse
         style="fill:#c6dede;fill-opacity:0.502538;stroke:none;stroke-width:0.765;stroke-linejoin:round;stroke-opacity:0.454008;paint-order:markers fill stroke"
         id="path36-6"
         cx="97.119598"
         cy="266.23929"
         rx="1.2107838"
         ry="1.0597764" />
      <ellipse
         style="fill:#c6dede;fill-opacity:0.502538;stroke:none;stroke-width:0.765;stroke-linejoin:round;stroke-opacity:0.454008;paint-order:markers fill stroke"
         id="path36-3"
         cx="92.924393"
         cy="261.82645"
         rx="1.2107838"
         ry="1.0597764" />
      <ellipse
         style="fill:#c6dede;fill-opacity:0.502538;stroke:none;stroke-width:0.765;stroke-linejoin:round;stroke-opacity:0.454008;paint-order:markers fill stroke"
         id="path37"
         cx="79.831154"
         cy="254.83591"
         rx="1.5582377"
         ry="1.4776706" />
      <ellipse
         style="fill:#c6dede;fill-opacity:0.502538;stroke:none;stroke-width:0.765;stroke-linejoin:round;stroke-opacity:0.454008;paint-order:markers fill stroke"
         id="path38"
         cx="74.999878"
         cy="259.77026"
         rx="0.54782021"
         ry="0.52303588" />
      <ellipse
         style="fill:#c6dede;fill-opacity:0.502538;stroke:none;stroke-width:0.765;stroke-linejoin:round;stroke-opacity:0.454008;paint-order:markers fill stroke"
         id="path38-8"
         cx="103.71913"
         cy="257.29108"
         rx="0.54782021"
         ry="0.52303588" />
      <ellipse
         style="fill:#c6dede;fill-opacity:0.502538;stroke:none;stroke-width:0.765;stroke-linejoin:round;stroke-opacity:0.454008;paint-order:markers fill stroke"
         id="path38-1"
         cx="85.076859"
         cy="252.32283"
         rx="0.54782021"
         ry="0.52303588" />
      <ellipse
         style="fill:#c6dede;fill-opacity:0.502538;stroke:none;stroke-width:0.765;stroke-linejoin:round;stroke-opacity:0.454008;paint-order:markers fill stroke"
         id="path38-0"
         cx="111.26321"
         cy="256.36429"
         rx="0.54782021"
         ry="0.52303588" />
      <ellipse
         style="fill:#c6dede;fill-opacity:0.502538;stroke:none;stroke-width:0.765;stroke-linejoin:round;stroke-opacity:0.454008;paint-order:markers fill stroke"
         id="path38-2"
         cx="116.61984"
         cy="257.19946"
         rx="0.54782021"
         ry="0.52303588" />
      <ellipse
         style="fill:#c6dede;fill-opacity:0.502538;stroke:none;stroke-width:0.765;stroke-linejoin:round;stroke-opacity:0.454008;paint-order:markers fill stroke"
         id="path38-9"
         cx="127.72116"
         cy="247.86333"
         rx="0.54782021"
         ry="0.52303588" />
      <ellipse
         style="fill:#c6dede;fill-opacity:0.502538;stroke:none;stroke-width:0.765;stroke-linejoin:round;stroke-opacity:0.454008;paint-order:markers fill stroke"
         id="path38-87"
         cx="97.587845"
         cy="251.24315"
         rx="0.54782021"
         ry="0.52303588" />
      <ellipse
         style="fill:#c6dede;fill-opacity:0.502538;stroke:none;stroke-width:0.765;stroke-linejoin:round;stroke-opacity:0.454008;paint-order:markers fill stroke"
         id="path38-7"
         cx="97.75193"
         cy="257.02237"
         rx="0.54782021"
         ry="0.52303588" />
      <ellipse
         style="fill:#c6dede;fill-opacity:0.502538;stroke:none;stroke-width:0.765;stroke-linejoin:round;stroke-opacity:0.454008;paint-order:markers fill stroke"
         id="path38-10"
         cx="73.396889"
         cy="252.61794"
         rx="0.54782021"
         ry="0.52303588" />
      <ellipse
         style="fill:#c6dede;fill-opacity:0.502538;stroke:none;stroke-width:0.765;stroke-linejoin:round;stroke-opacity:0.454008;paint-order:markers fill stroke"
         id="path38-94"
         cx="61.472687"
         cy="250.526"
         rx="0.54782021"
         ry="0.52303588" />
      <ellipse
         style="fill:#c6dede;fill-opacity:0.502538;stroke:none;stroke-width:0.765;stroke-linejoin:round;stroke-opacity:0.454008;paint-order:markers fill stroke"
         id="path38-17"
         cx="68.78791"
         cy="255.42787"
         rx="0.54782021"
         ry="0.52303588" />
      <ellipse
         style="fill:#c6dede;fill-opacity:0.502538;stroke:none;stroke-width:0.765;stroke-linejoin:round;stroke-opacity:0.454008;paint-order:markers fill stroke"
         id="path39"
         cx="83.956017"
         cy="264.26834"
         rx="0.37675977"
         ry="0.34057382" />
      <ellipse
         style="fill:#c6dede;fill-opacity:0.502538;stroke:none;stroke-width:0.765;stroke-linejoin:round;stroke-opacity:0.454008;paint-order:markers fill stroke"
         id="path39-6"
         cx="92.973763"
         cy="266.58051"
         rx="0.37675977"
         ry="0.34057382" />
      <ellipse
         style="fill:#c6dede;fill-opacity:0.502538;stroke:none;stroke-width:0.765;stroke-linejoin:round;stroke-opacity:0.454008;paint-order:markers fill stroke"
         id="path39-5"
         cx="86.932358"
         cy="260.20456"
         rx="0.37675977"
         ry="0.34057382" />
      <ellipse
         style="fill:#c6dede;fill-opacity:0.502538;stroke:none;stroke-width:0.765;stroke-linejoin:round;stroke-opacity:0.454008;paint-order:markers fill stroke"
         id="path39-4"
         cx="81.859825"
         cy="259.99875"
         rx="0.37675977"
         ry="0.34057382" />
      <ellipse
         style="fill:#c6dede;fill-opacity:0.502538;stroke:none;stroke-width:0.765;stroke-linejoin:round;stroke-opacity:0.454008;paint-order:markers fill stroke"
         id="path39-9"
         cx="112.06187"
         cy="250.18005"
         rx="0.37675977"
         ry="0.34057382" />
      <ellipse
         style="fill:#c6dede;fill-opacity:0.502538;stroke:none;stroke-width:0.765;stroke-linejoin:round;stroke-opacity:0.454008;paint-order:markers fill stroke"
         id="path39-8"
         cx="116.20452"
         cy="250.59377"
         rx="0.37675977"
         ry="0.34057382" />
      <ellipse
         style="fill:#c6dede;fill-opacity:0.502538;stroke:none;stroke-width:0.765;stroke-linejoin:round;stroke-opacity:0.454008;paint-order:markers fill stroke"
         id="path39-96"
         cx="115.4705"
         cy="252.48849"
         rx="0.37675977"
         ry="0.34057382" />
      <ellipse
         style="fill:#c6dede;fill-opacity:0.502538;stroke:none;stroke-width:0.765;stroke-linejoin:round;stroke-opacity:0.454008;paint-order:markers fill stroke"
         id="path39-61"
         cx="102.77051"
         cy="265.18848"
         rx="0.37675977"
         ry="0.34057382" />
      <ellipse
         style="fill:#c6dede;fill-opacity:0.502538;stroke:none;stroke-width:0.765;stroke-linejoin:round;stroke-opacity:0.454008;paint-order:markers fill stroke"
         id="path39-84"
         cx="67.979279"
         cy="250.19934"
         rx="0.37675977"
         ry="0.34057382" />
      <ellipse
         style="fill:#c6dede;fill-opacity:0.502538;stroke:none;stroke-width:0.765;stroke-linejoin:round;stroke-opacity:0.454008;paint-order:markers fill stroke"
         id="path39-3"
         cx="65.392242"
         cy="258.70602"
         rx="0.37675977"
         ry="0.34057382" />
      <ellipse
         style="fill:#c6dede;fill-opacity:0.502538;stroke:none;stroke-width:0.765;stroke-linejoin:round;stroke-opacity:0.454008;paint-order:markers fill stroke"
         id="path39-44"
         cx="58.145"
         cy="252.06699"
         rx="0.37675977"
         ry="0.34057382" />
      <path
         id="path40-1"
         style="fill:#a0f1a8;fill-opacity:0.870322;stroke:#1fce2e;stroke-width:0.265;stroke-linejoin:round;stroke-dasharray:none;stroke-opacity:1;paint-order:markers fill stroke"
         d="m 62.522291,237.09856 a 2.3754337,1.9928895 0 0 0 -2.37556,1.99316 2.3754337,1.9928895 0 0 0 0.0786,0.49351 5.9348221,3.091785 0 0 0 2.61689,0.32453 5.9348221,3.091785 0 0 0 1.92236,-0.17363 2.3754337,1.9928895 0 0 0 0.13281,-0.64441 2.3754337,1.9928895 0 0 0 -2.37505,-1.99316 z" />
      <path
         id="path40-1-6"
         style="fill:#a0f1a8;fill-opacity:0.870322;stroke:#1fce2e;stroke-width:0.265;stroke-linejoin:round;stroke-dasharray:none;stroke-opacity:1;paint-order:markers fill stroke"
         d="m 77.998463,242.36369 a 2.3754337,1.9928895 0 0 0 -2.37556,1.99316 2.3754337,1.9928895 0 0 0 0.0786,0.49351 5.9348221,3.091785 0 0 0 2.61689,0.32453 5.9348221,3.091785 0 0 0 1.92236,-0.17363 2.3754337,1.9928895 0 0 0 0.13281,-0.64441 2.3754337,1.9928895 0 0 0 -2.37505,-1.99316 z" />
      <path
         id="path40-1-8"
         style="fill:#a0f1a8;fill-opacity:0.870322;stroke:#1fce2e;stroke-width:0.265;stroke-linejoin:round;stroke-dasharray:none;stroke-opacity:1;paint-order:markers fill stroke"
         d="m 95.465052,238.81636 a 2.3754337,1.9928895 0 0 0 -2.37556,1.99316 2.3754337,1.9928895 0 0 0 0.0786,0.49351 5.9348221,3.091785 0 0 0 2.61689,0.32453 5.9348221,3.091785 0 0 0 1.92236,-0.17363 2.3754337,1.9928895 0 0 0 0.13281,-0.64441 2.3754337,1.9928895 0 0 0 -2.37505,-1.99316 z" />
      <path
         id="path40-1-1"
         style="fill:#a0f1a8;fill-opacity:0.870322;stroke:#1fce2e;stroke-width:0.265;stroke-linejoin:round;stroke-dasharray:none;stroke-opacity:1;paint-order:markers fill stroke"
         d="m 104.7028,240.53462 a 2.3754337,1.9928895 0 0 0 -2.37556,1.99316 2.3754337,1.9928895 0 0 0 0.0786,0.49351 5.9348221,3.091785 0 0 0 2.61689,0.32453 5.9348221,3.091785 0 0 0 1.92236,-0.17363 2.3754337,1.9928895 0 0 0 0.13281,-0.64441 2.3754337,1.9928895 0 0 0 -2.37505,-1.99316 z" />
      <path
         id="path40-1-7"
         style="fill:#a0f1a8;fill-opacity:0.870322;stroke:#1fce2e;stroke-width:0.265;stroke-linejoin:round;stroke-dasharray:none;stroke-opacity:1;paint-order:markers fill stroke"
         d="m 110.34544,236.62385 a 2.3754337,1.9928895 0 0 0 -2.37556,1.99316 2.3754337,1.9928895 0 0 0 0.0786,0.49351 5.9348221,3.091785 0 0 0 2.61689,0.32453 5.9348221,3.091785 0 0 0 1.92236,-0.17363 2.3754337,1.9928895 0 0 0 0.13281,-0.64441 2.3754337,1.9928895 0 0 0 -2.37505,-1.99316 z" />
      <path
         id="path40-1-83"
         style="fill:#a0f1a8;fill-opacity:0.870322;stroke:#1fce2e;stroke-width:0.265;stroke-linejoin:round;stroke-dasharray:none;stroke-opacity:1;paint-order:markers fill stroke"
         d="m 118.13821,240.92379 a 2.3754337,1.9928895 0 0 0 -2.37556,1.99316 2.3754337,1.9928895 0 0 0 0.0786,0.49351 5.9348221,3.091785 0 0 0 2.61689,0.32453 5.9348221,3.091785 0 0 0 1.92236,-0.17363 2.3754337,1.9928895 0 0 0 0.13281,-0.64441 2.3754337,1.9928895 0 0 0 -2.37505,-1.99316 z" />
      <path
         id="path40-1-64"
         style="fill:#a0f1a8;fill-opacity:0.870322;stroke:#1fce2e;stroke-width:0.265;stroke-linejoin:round;stroke-dasharray:none;stroke-opacity:1;paint-order:markers fill stroke"
         d="m 86.641624,242.1325 a 2.3754337,1.9928895 0 0 0 -2.37556,1.99316 2.3754337,1.9928895 0 0 0 0.0786,0.49351 5.9348221,3.091785 0 0 0 2.61689,0.32453 5.9348221,3.091785 0 0 0 1.92236,-0.17363 2.3754337,1.9928895 0 0 0 0.13281,-0.64441 2.3754337,1.9928895 0 0 0 -2.37505,-1.99316 z" />
      <path
         id="path40-1-86"
         style="fill:#a0f1a8;fill-opacity:0.870322;stroke:#1fce2e;stroke-width:0.265;stroke-linejoin:round;stroke-dasharray:none;stroke-opacity:1;paint-order:markers fill stroke"
         d="m 81.621436,235.86444 a 2.3754337,1.9928895 0 0 0 -2.37556,1.99316 2.3754337,1.9928895 0 0 0 0.0786,0.49351 5.9348221,3.091785 0 0 0 2.61689,0.32453 5.9348221,3.091785 0 0 0 1.92236,-0.17363 2.3754337,1.9928895 0 0 0 0.13281,-0.64441 2.3754337,1.9928895 0 0 0 -2.37505,-1.99316 z" />
      <path
         id="path40-1-88"
         style="fill:#a0f1a8;fill-opacity:0.870322;stroke:#1fce2e;stroke-width:0.265;stroke-linejoin:round;stroke-dasharray:none;stroke-opacity:1;paint-order:markers fill stroke"
         d="m 57.346883,240.71592 a 2.3754337,1.9928895 0 0 0 -2.37556,1.99316 2.3754337,1.9928895 0 0 0 0.0786,0.49351 5.9348221,3.091785 0 0 0 2.61689,0.32453 5.9348221,3.091785 0 0 0 1.92236,-0.17363 2.3754337,1.9928895 0 0 0 0.13281,-0.64441 2.3754337,1.9928895 0 0 0 -2.37505,-1.99316 z" />
      <path
         id="path40-1-643"
         style="fill:#a0f1a8;fill-opacity:0.870322;stroke:#1fce2e;stroke-width:0.265;stroke-linejoin:round;stroke-dasharray:none;stroke-opacity:1;paint-order:markers fill stroke"
         d="m 69.900093,242.12664 a 2.3754337,1.9928895 0 0 0 -2.37556,1.99316 2.3754337,1.9928895 0 0 0 0.0786,0.49351 5.9348221,3.091785 0 0 0 2.61689,0.32453 5.9348221,3.091785 0 0 0 1.92236,-0.17363 2.3754337,1.9928895 0 0 0 0.13281,-0.64441 2.3754337,1.9928895 0 0 0 -2.37505,-1.99316 z" />
      <path
         id="path40-1-9-0"
         style="fill:#a0f1a8;fill-opacity:0.870322;stroke:#1fce2e;stroke-width:0.16582;stroke-linejoin:round;stroke-dasharray:none;stroke-opacity:1;paint-order:markers fill stroke"
         d="m 96.861817,243.55479 a 1.4320731,1.2943237 0 0 0 -1.43215,1.2945 1.4320731,1.2943237 0 0 0 0.0474,0.32052 3.5779146,2.0080243 0 0 0 1.57763,0.21077 3.5779146,2.0080243 0 0 0 1.15893,-0.11277 1.4320731,1.2943237 0 0 0 0.0801,-0.41852 1.4320731,1.2943237 0 0 0 -1.43184,-1.2945 z" />
      <path
         id="path40-1-9-6"
         style="fill:#a0f1a8;fill-opacity:0.870322;stroke:#1fce2e;stroke-width:0.16582;stroke-linejoin:round;stroke-dasharray:none;stroke-opacity:1;paint-order:markers fill stroke"
         d="m 109.00742,243.78955 a 1.4320731,1.2943237 0 0 0 -1.43215,1.2945 1.4320731,1.2943237 0 0 0 0.0474,0.32052 3.5779146,2.0080243 0 0 0 1.57763,0.21077 3.5779146,2.0080243 0 0 0 1.15893,-0.11277 1.4320731,1.2943237 0 0 0 0.0801,-0.41852 1.4320731,1.2943237 0 0 0 -1.43184,-1.2945 z" />
      <path
         id="path40-1-9-4"
         style="fill:#a0f1a8;fill-opacity:0.870322;stroke:#1fce2e;stroke-width:0.16582;stroke-linejoin:round;stroke-dasharray:none;stroke-opacity:1;paint-order:markers fill stroke"
         d="m 119.95543,237.76304 a 1.4320731,1.2943237 0 0 0 -1.43215,1.2945 1.4320731,1.2943237 0 0 0 0.0474,0.32052 3.5779146,2.0080243 0 0 0 1.57763,0.21077 3.5779146,2.0080243 0 0 0 1.15893,-0.11277 1.4320731,1.2943237 0 0 0 0.0801,-0.41852 1.4320731,1.2943237 0 0 0 -1.43184,-1.2945 z" />
      <path
         id="path40-1-9-48"
         style="fill:#a0f1a8;fill-opacity:0.870322;stroke:#1fce2e;stroke-width:0.16582;stroke-linejoin:round;stroke-dasharray:none;stroke-opacity:1;paint-order:markers fill stroke"
         d="m 126.2879,240.86696 a 1.4320731,1.2943237 0 0 0 -1.43215,1.2945 1.4320731,1.2943237 0 0 0 0.0474,0.32052 3.5779146,2.0080243 0 0 0 1.57763,0.21077 3.5779146,2.0080243 0 0 0 1.15893,-0.11277 1.4320731,1.2943237 0 0 0 0.0801,-0.41852 1.4320731,1.2943237 0 0 0 -1.43184,-1.2945 z" />
      <path
         id="path40-1-9-9"
         style="fill:#a0f1a8;fill-opacity:0.870322;stroke:#1fce2e;stroke-width:0.16582;stroke-linejoin:round;stroke-dasharray:none;stroke-opacity:1;paint-order:markers fill stroke"
         d="m 101.5023,236.9554 a 1.4320731,1.2943237 0 0 0 -1.43215,1.2945 1.4320731,1.2943237 0 0 0 0.0474,0.32052 3.5779146,2.0080243 0 0 0 1.57763,0.21077 3.5779146,2.0080243 0 0 0 1.15893,-0.11277 1.4320731,1.2943237 0 0 0 0.0801,-0.41852 1.4320731,1.2943237 0 0 0 -1.43184,-1.2945 z" />
      <path
         id="path40-1-9-02"
         style="fill:#a0f1a8;fill-opacity:0.870322;stroke:#1fce2e;stroke-width:0.16582;stroke-linejoin:round;stroke-dasharray:none;stroke-opacity:1;paint-order:markers fill stroke"
         d="m 88.614502,238.42802 a 1.4320731,1.2943237 0 0 0 -1.43215,1.2945 1.4320731,1.2943237 0 0 0 0.0474,0.32052 3.5779146,2.0080243 0 0 0 1.57763,0.21077 3.5779146,2.0080243 0 0 0 1.15893,-0.11277 1.4320731,1.2943237 0 0 0 0.0801,-0.41852 1.4320731,1.2943237 0 0 0 -1.43184,-1.2945 z" />
      <path
         id="path40-1-9-1"
         style="fill:#a0f1a8;fill-opacity:0.870322;stroke:#1fce2e;stroke-width:0.16582;stroke-linejoin:round;stroke-dasharray:none;stroke-opacity:1;paint-order:markers fill stroke"
         d="m 71.94117,237.14088 a 1.4320731,1.2943237 0 0 0 -1.43215,1.2945 1.4320731,1.2943237 0 0 0 0.0474,0.32052 3.5779146,2.0080243 0 0 0 1.57763,0.21077 3.5779146,2.0080243 0 0 0 1.15893,-0.11277 1.4320731,1.2943237 0 0 0 0.0801,-0.41852 1.4320731,1.2943237 0 0 0 -1.43184,-1.2945 z" />
      <path
         id="path40-1-9-5"
         style="fill:#a0f1a8;fill-opacity:0.870322;stroke:#1fce2e;stroke-width:0.16582;stroke-linejoin:round;stroke-dasharray:none;stroke-opacity:1;paint-order:markers fill stroke"
         d="m 73.831557,239.70132 a 1.4320731,1.2943237 0 0 0 -1.43215,1.2945 1.4320731,1.2943237 0 0 0 0.0474,0.32052 3.5779146,2.0080243 0 0 0 1.57763,0.21077 3.5779146,2.0080243 0 0 0 1.15893,-0.11277 1.4320731,1.2943237 0 0 0 0.0801,-0.41852 1.4320731,1.2943237 0 0 0 -1.43184,-1.2945 z" />
    </g>
  </g>
</svg>
