<?xml version="1.0" encoding="UTF-8" standalone="no"?>
<!-- Created with Inkscape (http://www.inkscape.org/) -->

<svg
   width="210mm"
   height="297mm"
   viewBox="0 0 210 297"
   version="1.1"
   id="svg1"
   xml:space="preserve"
   inkscape:version="1.3 (1:1.3+202307231459+0e150ed6c4)"
   sodipodi:docname="monitor_debug.svg"
   inkscape:export-filename="monitor_debug.png"
   inkscape:export-xdpi="6.7667837"
   inkscape:export-ydpi="6.7667837"
   xmlns:inkscape="http://www.inkscape.org/namespaces/inkscape"
   xmlns:sodipodi="http://sodipodi.sourceforge.net/DTD/sodipodi-0.dtd"
   xmlns="http://www.w3.org/2000/svg"
   xmlns:svg="http://www.w3.org/2000/svg"><sodipodi:namedview
     id="namedview1"
     pagecolor="#3e3e3e"
     bordercolor="#eeeeee"
     borderopacity="1"
     inkscape:showpageshadow="0"
     inkscape:pageopacity="0"
     inkscape:pagecheckerboard="0"
     inkscape:deskcolor="#d1d1d1"
     inkscape:document-units="mm"
     inkscape:zoom="1.4142136"
     inkscape:cx="350.72496"
     inkscape:cy="676.70119"
     inkscape:window-width="3840"
     inkscape:window-height="2072"
     inkscape:window-x="0"
     inkscape:window-y="0"
     inkscape:window-maximized="1"
     inkscape:current-layer="layer1"
     inkscape:export-bgcolor="#00000000"
     inkscape:clip-to-page="false" /><defs
     id="defs1"><rect
       x="37.992309"
       y="319.28143"
       width="686.17785"
       height="479.71417"
       id="rect7" /></defs><g
     inkscape:label="Layer 1"
     inkscape:groupmode="layer"
     id="layer1"><g
       id="g7"><text
         xml:space="preserve"
         transform="scale(0.26458333)"
         id="text7"
         style="font-size:17.3333px;line-height:1.25;font-family:sans-serif;white-space:pre;shape-inside:url(#rect7);display:inline" /></g><rect
       style="fill:#000000;fill-opacity:0;stroke:#50cd43;stroke-width:0;stroke-linejoin:round;stroke-dasharray:none;stroke-opacity:1;paint-order:markers fill stroke"
       id="rect4"
       width="180"
       height="180"
       x="16.933334"
       y="51.858334"
       rx="0.6522482"
       ry="0.6522482" /><rect
       style="fill:#030303;fill-opacity:1;stroke:#c4a000;stroke-width:6.19679;stroke-linejoin:round;stroke-dasharray:none;stroke-opacity:1;paint-order:markers fill stroke"
       id="rect1"
       width="39.74332"
       height="107.58105"
       x="20.591049"
       y="91.297363" /><rect
       style="fill:#030303;fill-opacity:1;stroke:#c4a000;stroke-width:6.19679;stroke-linejoin:round;stroke-dasharray:none;stroke-opacity:1;paint-order:markers fill stroke"
       id="rect2"
       width="134.00189"
       height="96.655571"
       x="60.386715"
       y="91.32653" /><rect
       style="fill:#030303;fill-opacity:1;stroke:#c4a000;stroke-width:6.19679;stroke-linejoin:round;stroke-dasharray:none;stroke-opacity:1;paint-order:markers fill stroke"
       id="rect3"
       width="134.03796"
       height="10.835079"
       x="60.356277"
       y="188.00201" /><g
       id="g15"
       transform="matrix(0.91360177,0,0,0.96437657,-118.2183,-86.373197)"><g
         id="g14"><g
           id="g13"><path
             d="m 287.85013,250.72578 h -48.48386 a 27.364382,31.108131 0 0 0 0.54363,1.3255 27.364382,31.108131 0 0 0 2.73627,4.44159 27.364382,31.108131 0 0 0 3.37241,3.83439 27.364382,31.108131 0 0 0 3.90725,3.11041 27.364382,31.108131 0 0 0 4.32325,2.29133 27.364382,31.108131 0 0 0 4.60747,1.40353 27.364382,31.108131 0 0 0 4.75165,0.47284 27.364382,31.108131 0 0 0 4.75165,-0.47284 27.364382,31.108131 0 0 0 4.60747,-1.40353 27.364382,31.108131 0 0 0 4.32325,-2.29133 27.364382,31.108131 0 0 0 3.90725,-3.11041 27.364382,31.108131 0 0 0 3.37292,-3.83439 27.364382,31.108131 0 0 0 2.73575,-4.44159 27.364382,31.108131 0 0 0 0.54364,-1.3255 z"
             style="opacity:1;fill:#020000;fill-opacity:1;stroke-width:6.00001;stroke-linejoin:round;paint-order:markers fill stroke"
             id="path12" /><path
             d="m 263.6082,205.38901 a 27.364382,31.108131 0 0 0 -4.75165,0.47233 27.364382,31.108131 0 0 0 -4.60747,1.40353 27.364382,31.108131 0 0 0 -4.32325,2.29185 27.364382,31.108131 0 0 0 -3.90725,3.10989 27.364382,31.108131 0 0 0 -3.37241,3.83439 27.364382,31.108131 0 0 0 -2.73627,4.4421 27.364382,31.108131 0 0 0 -2.01589,4.91443 27.364382,31.108131 0 0 0 -1.23455,5.23741 27.364382,31.108131 0 0 0 -0.41548,5.40225 27.364382,31.108131 0 0 0 0.41548,5.40174 27.364382,31.108131 0 0 0 1.23455,5.23792 27.364382,31.108131 0 0 0 1.47226,3.58893 h 48.48386 a 27.364382,31.108131 0 0 0 1.47226,-3.58893 27.364382,31.108131 0 0 0 1.23455,-5.23792 27.364382,31.108131 0 0 0 0.41548,-5.40174 27.364382,31.108131 0 0 0 -0.046,-1.80919 27.364382,31.108131 0 0 0 -0.13901,-1.80247 27.364382,31.108131 0 0 0 -0.23048,-1.79059 27.364382,31.108131 0 0 0 -0.32194,-1.77199 27.364382,31.108131 0 0 0 -0.41186,-1.74769 27.364382,31.108131 0 0 0 -0.50075,-1.71773 27.364382,31.108131 0 0 0 -0.58756,-1.68207 27.364382,31.108131 0 0 0 -0.67283,-1.63969 27.364382,31.108131 0 0 0 -0.75551,-1.59267 27.364382,31.108131 0 0 0 -0.8356,-1.54047 27.364382,31.108131 0 0 0 -0.91313,-1.48208 27.364382,31.108131 0 0 0 -0.98702,-1.41955 27.364382,31.108131 0 0 0 -1.05833,-1.35186 27.364382,31.108131 0 0 0 -1.12551,-1.27951 27.364382,31.108131 0 0 0 -1.18908,-1.20302 27.364382,31.108131 0 0 0 -1.2485,-1.1219 27.364382,31.108131 0 0 0 -1.30431,-1.03818 27.364382,31.108131 0 0 0 -1.35444,-0.94981 27.364382,31.108131 0 0 0 -1.40147,-0.85886 27.364382,31.108131 0 0 0 -1.44229,-0.76482 27.364382,31.108131 0 0 0 -1.47949,-0.66817 27.364382,31.108131 0 0 0 -1.51102,-0.56896 27.364382,31.108131 0 0 0 -1.53738,-0.4687 27.364382,31.108131 0 0 0 -1.55907,-0.36587 27.364382,31.108131 0 0 0 -1.57458,-0.262 27.364382,31.108131 0 0 0 -1.58595,-0.15762 27.364382,31.108131 0 0 0 -1.59112,-0.0527 z"
             style="opacity:1;fill:#ea1114;stroke-width:6.00001;stroke-linejoin:round;paint-order:markers fill stroke"
             id="path10" /></g><path
           style="fill:none;stroke:#000000;stroke-width:5.87873;stroke-linecap:butt;stroke-linejoin:miter;stroke-dasharray:none;stroke-opacity:1"
           d="m 263.60533,252.36973 -0.37405,-46.88389"
           id="path13" /></g><ellipse
         style="opacity:1;fill:#ffffff;fill-opacity:1;stroke:none;stroke-width:5.76501;stroke-linejoin:round;stroke-dasharray:none;stroke-opacity:1;paint-order:markers fill stroke"
         id="path14"
         cx="258.08337"
         cy="261.82922"
         rx="2.4662132"
         ry="2.5183015" /><ellipse
         style="fill:#ffffff;fill-opacity:1;stroke:none;stroke-width:5.76501;stroke-linejoin:round;stroke-dasharray:none;stroke-opacity:1;paint-order:markers fill stroke"
         id="path14-6"
         cx="270.31009"
         cy="261.51315"
         rx="2.4662132"
         ry="2.5183015" /><ellipse
         style="fill:#000000;fill-opacity:1;stroke:none;stroke-width:5.76501;stroke-linejoin:round;stroke-dasharray:none;stroke-opacity:1;paint-order:markers fill stroke"
         id="path14-2"
         cx="250.69472"
         cy="216.15685"
         rx="2.4662132"
         ry="2.5183015" /><ellipse
         style="fill:#000000;fill-opacity:1;stroke:none;stroke-width:5.76501;stroke-linejoin:round;stroke-dasharray:none;stroke-opacity:1;paint-order:markers fill stroke"
         id="path14-2-3"
         cx="241.46529"
         cy="244.53581"
         rx="2.4662132"
         ry="2.5183015" /><ellipse
         style="fill:#000000;fill-opacity:1;stroke:none;stroke-width:5.76501;stroke-linejoin:round;stroke-dasharray:none;stroke-opacity:1;paint-order:markers fill stroke"
         id="path14-2-2"
         cx="274.53397"
         cy="224.20988"
         rx="2.4662132"
         ry="2.5183015" /><ellipse
         style="fill:#000000;fill-opacity:1;stroke:none;stroke-width:5.76501;stroke-linejoin:round;stroke-dasharray:none;stroke-opacity:1;paint-order:markers fill stroke"
         id="path14-2-7"
         cx="281.90411"
         cy="240.73491"
         rx="2.4662132"
         ry="2.5183015" /><ellipse
         style="fill:#000000;fill-opacity:1;stroke:none;stroke-width:5.76501;stroke-linejoin:round;stroke-dasharray:none;stroke-opacity:1;paint-order:markers fill stroke"
         id="path14-2-23"
         cx="254.22551"
         cy="232.74585"
         rx="2.4662132"
         ry="2.5183015" /></g></g></svg>
