<?xml version="1.0" encoding="UTF-8" standalone="no"?>
<!-- Created with Inkscape (http://www.inkscape.org/) -->

<svg
   width="210mm"
   height="297mm"
   viewBox="0 0 210 297"
   version="1.1"
   id="svg1"
   xml:space="preserve"
   inkscape:version="1.3 (1:1.3+202307231459+0e150ed6c4)"
   sodipodi:docname="monitor.svg"
   inkscape:export-filename="monitor.png"
   inkscape:export-xdpi="6.7667837"
   inkscape:export-ydpi="6.7667837"
   xmlns:inkscape="http://www.inkscape.org/namespaces/inkscape"
   xmlns:sodipodi="http://sodipodi.sourceforge.net/DTD/sodipodi-0.dtd"
   xmlns:xlink="http://www.w3.org/1999/xlink"
   xmlns="http://www.w3.org/2000/svg"
   xmlns:svg="http://www.w3.org/2000/svg"><sodipodi:namedview
     id="namedview1"
     pagecolor="#505050"
     bordercolor="#eeeeee"
     borderopacity="1"
     inkscape:showpageshadow="0"
     inkscape:pageopacity="0"
     inkscape:pagecheckerboard="0"
     inkscape:deskcolor="#d1d1d1"
     inkscape:document-units="mm"
     inkscape:zoom="1.4142136"
     inkscape:cx="188.79751"
     inkscape:cy="570.63517"
     inkscape:window-width="3840"
     inkscape:window-height="2072"
     inkscape:window-x="0"
     inkscape:window-y="0"
     inkscape:window-maximized="1"
     inkscape:current-layer="layer1"
     inkscape:export-bgcolor="#00000000"
     showgrid="false" /><defs
     id="defs1"><linearGradient
       id="linearGradient1"
       inkscape:collect="always"><stop
         style="stop-color:#22a146;stop-opacity:1;"
         offset="0"
         id="stop1" /><stop
         style="stop-color:#45e541;stop-opacity:1;"
         offset="1"
         id="stop2" /></linearGradient><rect
       x="37.992309"
       y="319.28143"
       width="686.17785"
       height="479.71417"
       id="rect7" /><linearGradient
       inkscape:collect="always"
       xlink:href="#linearGradient1"
       id="linearGradient2"
       x1="67.221958"
       y1="246.43378"
       x2="117.19481"
       y2="246.43378"
       gradientUnits="userSpaceOnUse"
       gradientTransform="translate(0,-0.18708867)" /></defs><g
     inkscape:label="Layer 1"
     inkscape:groupmode="layer"
     id="layer1"><g
       id="g7"><text
         xml:space="preserve"
         transform="scale(0.26458333)"
         id="text7"
         style="font-size:17.3333px;line-height:1.25;font-family:sans-serif;white-space:pre;shape-inside:url(#rect7);display:inline" /></g><rect
       style="fill:#000000;fill-opacity:0;stroke:#50cd43;stroke-width:0;stroke-linejoin:round;stroke-dasharray:none;stroke-opacity:1;paint-order:markers fill stroke"
       id="rect4"
       width="180"
       height="180"
       x="17.581169"
       y="54.611515"
       rx="0.6522482"
       ry="0.6522482" /><g
       id="g4"
       transform="translate(0,0.18708867)"><rect
         style="fill:#030303;fill-opacity:1;stroke:#c4a000;stroke-width:6.19679;stroke-linejoin:round;stroke-dasharray:none;stroke-opacity:1;paint-order:markers fill stroke"
         id="rect1"
         width="39.74332"
         height="107.58105"
         x="20.591049"
         y="91.297363" /><rect
         style="fill:#030303;fill-opacity:1;stroke:#c4a000;stroke-width:6.19679;stroke-linejoin:round;stroke-dasharray:none;stroke-opacity:1;paint-order:markers fill stroke"
         id="rect2"
         width="134.00189"
         height="96.655571"
         x="60.386715"
         y="91.32653" /><rect
         style="fill:#030303;fill-opacity:1;stroke:#c4a000;stroke-width:6.19679;stroke-linejoin:round;stroke-dasharray:none;stroke-opacity:1;paint-order:markers fill stroke"
         id="rect3"
         width="134.03796"
         height="10.835079"
         x="60.356277"
         y="188.00201" /><path
         style="fill:url(#linearGradient2);fill-opacity:1;stroke:#50cd43;stroke-width:0.308154px;stroke-linecap:butt;stroke-linejoin:miter;stroke-opacity:1"
         d="m 139.70918,111.02083 1.29732,1.64351 0.24596,2.33825 0.0227,1.77187 -0.42507,1.53319 -0.56677,1.89439 -1.33133,1.75921 -1.8397,0.16728 -1.01525,-0.46687 -0.61635,1.16525 0.32793,2.46373 0.22024,1.99798 0.45883,2.12123 0.62223,1.39439 1.14772,0.57172 1.12695,-0.1347 1.08865,-0.97003 1.10614,-0.87604 0.31895,-1.65974 0.56169,-1.08319 0.13094,-0.80672 0.12214,-0.87905 0.47222,0.5837 0.28387,0.13847 0.53753,-1.21174 0.70799,-0.85747 0.4477,-0.01 -0.13128,1.02082 -0.51978,0.78806 -0.34003,0.78654 1.07373,-0.90325 0.7039,-0.5636 0.21379,0.98378 -0.58836,0.41393 0.74432,0.0861 0.0494,0.60322 -0.48541,0.54094 -0.39002,0.31735 0.63227,-0.0665 0.37851,-0.0688 -0.43499,0.83376 -1.46312,1.27554 -0.91008,1.40268 -1.00365,1.46362 -2.51418,1.97624 -2.45642,1.97312 -2.22029,0.7132 -0.95526,-0.26352 -1.11747,-1.72419 -0.89722,-2.65129 -0.69374,-2.33804 -1.24062,0.7916 -1.76134,1.30361 -1.23188,1.1269 -1.15527,0.51717 -0.8417,0.77903 1.88104,0.98082 1.41967,1.32171 1.69216,1.66977 1.92679,2.32525 1.02706,2.14347 0.22446,1.13553 -0.0838,0.68178 -0.48044,1.08102 -1.33828,1.63019 -2.3844,2.44963 -1.65438,1.39464 -1.60902,1.19181 -0.74833,0.63199 -0.48462,0.60147 -0.6789,0.85118 -0.413,0.8658 -0.41006,0.86163 0.51399,1.89596 0.31464,1.49058 0.9008,1.07834 0.82445,1.03355 v 0.51421 l -0.5199,1.1474 -1.65034,-0.6028 -1.55568,-1.11871 -1.42039,-1.53929 -0.92258,-1.36932 -0.82565,-0.7542 -0.76442,-0.80581 -0.15041,-1.02977 0.42134,-1.11089 0.82247,-0.70618 0.93396,-0.53605 1.06056,-0.94715 1.72653,-1.75029 1.94528,-2.30608 0.84989,-1.80332 1.18909,-1.1499 0.89573,-1.16569 -0.36739,-0.73184 -2.15301,-0.87198 -2.17073,-0.50521 -1.23804,-0.33119 -1.30834,-0.5236 -1.71215,1.26935 -1.51689,1.32831 -2.91711,3.75772 -2.78497,2.41136 -1.17568,1.28915 -1.58703,0.85858 -1.73241,1.90391 -1.22831,1.55452 -1.34463,1.33118 -0.93139,1.09251 -0.94518,1.23199 -1.03699,1.81548 -0.74429,1.61058 -0.14815,1.23471 -0.12401,1.3127 -0.37549,1.22621 -0.47145,0.46383 0.44252,0.73711 0.76478,0.89562 -0.0748,1.01195 -1.212688,0.31912 -1.27984,-0.10035 -0.84453,-0.46582 -0.558962,-1.25431 -0.149373,-1.39209 -0.05702,-2.62648 -0.05954,-2.0598 -0.05848,-1.25758 -0.01203,-0.88067 0.686358,-0.55661 0.98019,-0.34559 0.872534,-0.20679 0.300595,0.11516 0.764406,-1.60155 1.0132,-1.25922 0.72602,-1.22184 0.87396,-1.17687 0.4219,-1.01298 1.10999,-1.62754 1.10224,-1.36575 0.95077,-0.55504 1.30786,-0.99696 1.04303,-1.49304 1.31339,-2.16213 1.01249,-2.30434 1.42854,-1.96455 1.12617,-1.25398 0.66776,-0.97882 0.84067,-2.70411 0.35315,-1.74282 0.48495,-1.59906 1.20174,-1.0036 1.16037,-1.30662 0.64051,-0.51914 0.79847,-0.22879 0.77351,-1.39072 1.06084,-1.53101 2.08848,-2.63155 1.10121,-1.49982 1.54859,-1.61531 1.05305,-0.98381 -0.76277,-0.86079 -0.41892,-0.63438 -1.35028,0.32418 -1.36157,0.2158 -1.57591,0.008 -0.914,0.20406 -1.19932,0.77503 -1.20637,0.21578 -0.61888,0.28832 -0.61166,0.59546 -1.5557,0.16335 -0.79122,-0.57738 -1.16668,-0.75499 -0.82839,-0.49083 0.0145,-0.81517 0.7639,-0.2548 0.94328,0.0686 0.66783,0.25102 0.13241,-0.63311 0.67896,-0.40433 0.35274,0.40765 0.99759,0.0219 0.75257,-0.29281 1.3927,-1.01228 1.31381,-1.23694 1.93673,-0.86121 2.18262,-0.39459 2.08483,0.24724 2.39322,0.90319 1.49589,0.8068 1.60677,0.52198 0.90122,-0.63329 1.24345,-1.92502 0.9916,-1.69604 1.83117,-1.26321 z"
         id="path1" /></g></g></svg>
