<?xml version="1.0" encoding="UTF-8" standalone="no"?>
<!-- Created with Inkscape (http://www.inkscape.org/) -->

<svg
   width="640mm"
   height="640mm"
   viewBox="0 0 640 640"
   version="1.1"
   id="svg827"
   inkscape:version="1.3 (1:1.3+202307231459+0e150ed6c4)"
   sodipodi:docname="template_ball_plus.svg"
   inkscape:export-filename="plus_48.png"
   inkscape:export-xdpi="1.905"
   inkscape:export-ydpi="1.905"
   xmlns:inkscape="http://www.inkscape.org/namespaces/inkscape"
   xmlns:sodipodi="http://sodipodi.sourceforge.net/DTD/sodipodi-0.dtd"
   xmlns="http://www.w3.org/2000/svg"
   xmlns:svg="http://www.w3.org/2000/svg">
  <sodipodi:namedview
     id="namedview829"
     pagecolor="#505050"
     bordercolor="#eeeeee"
     borderopacity="1"
     inkscape:pageshadow="0"
     inkscape:pageopacity="0"
     inkscape:pagecheckerboard="0"
     inkscape:document-units="mm"
     showgrid="false"
     inkscape:zoom="0.32"
     inkscape:cx="551.5625"
     inkscape:cy="1212.5"
     inkscape:window-width="3840"
     inkscape:window-height="2072"
     inkscape:window-x="0"
     inkscape:window-y="0"
     inkscape:window-maximized="1"
     inkscape:current-layer="layer1"
     inkscape:showpageshadow="0"
     inkscape:deskcolor="#d1d1d1"
     inkscape:export-bgcolor="#00000000" />
  <defs
     id="defs824" />
  <g
     inkscape:label="Layer 1"
     inkscape:groupmode="layer"
     id="layer1">
    <path
       id="path1090"
       style="fill:#ffe0a5;stroke:none;stroke-width:1.56701;stroke-linejoin:round;stroke-dashoffset:0.0579468;paint-order:markers fill stroke;fill-opacity:1"
       d="M 1154.0371 2416.3145 A 1208.6653 1208.6653 0 0 0 1240.6699 2406.5547 A 1208.6653 1208.6653 0 0 0 1329.4824 2389.75 A 1208.6653 1208.6653 0 0 0 1416.7891 2366.3555 A 1208.6653 1208.6653 0 0 0 1502.1035 2336.5039 A 1208.6653 1208.6653 0 0 0 1584.9492 2300.3574 A 1208.6653 1208.6653 0 0 0 1664.8613 2258.123 A 1208.6653 1208.6653 0 0 0 1741.3945 2210.0352 A 1208.6653 1208.6653 0 0 0 1814.1191 2156.3613 A 1208.6653 1208.6653 0 0 0 1882.6289 2097.4023 A 1208.6653 1208.6653 0 0 0 1946.543 2033.4902 A 1208.6653 1208.6653 0 0 0 2005.502 1964.9785 A 1208.6653 1208.6653 0 0 0 2059.1738 1892.2539 A 1208.6653 1208.6653 0 0 0 2107.2637 1815.7207 A 1208.6653 1208.6653 0 0 0 2149.498 1735.8086 A 1208.6653 1208.6653 0 0 0 2185.6426 1652.9629 A 1208.6653 1208.6653 0 0 0 2215.4961 1567.6484 A 1208.6653 1208.6653 0 0 0 2238.8906 1480.3418 A 1208.6653 1208.6653 0 0 0 2255.6934 1391.5312 A 1208.6653 1208.6653 0 0 0 2265.8145 1301.7129 A 1208.6653 1208.6653 0 0 0 2269.1934 1211.3887 A 1208.6653 1208.6653 0 0 0 2268.793 1180.2676 A 1208.6653 1208.6653 0 0 0 2267.5918 1149.168 A 1208.6653 1208.6653 0 0 0 2265.5898 1118.1094 A 1208.6653 1208.6653 0 0 0 2262.7871 1087.1113 A 1208.6653 1208.6653 0 0 0 2259.1895 1056.1973 A 1208.6653 1208.6653 0 0 0 2254.7969 1025.3867 A 1208.6653 1208.6653 0 0 0 2249.6113 994.69727 A 1208.6653 1208.6653 0 0 0 2243.6367 964.15234 A 1208.6653 1208.6653 0 0 0 2236.8789 933.77344 A 1208.6653 1208.6653 0 0 0 2229.3418 903.57617 A 1208.6653 1208.6653 0 0 0 2221.0293 873.58398 A 1208.6653 1208.6653 0 0 0 2211.9453 843.81445 A 1208.6653 1208.6653 0 0 0 2202.0996 814.29102 A 1208.6653 1208.6653 0 0 0 2191.4961 785.0293 A 1208.6653 1208.6653 0 0 0 2180.1445 756.05078 A 1208.6653 1208.6653 0 0 0 2168.0488 727.37305 A 1208.6653 1208.6653 0 0 0 2155.2188 699.01758 A 1208.6653 1208.6653 0 0 0 2141.6641 671.00195 A 1208.6653 1208.6653 0 0 0 2127.3926 643.34375 A 1208.6653 1208.6653 0 0 0 2112.4121 616.0625 A 1208.6653 1208.6653 0 0 0 2096.7344 589.17578 A 1208.6653 1208.6653 0 0 0 2080.3711 562.70312 A 1208.6653 1208.6653 0 0 0 2063.3301 536.6582 A 1208.6653 1208.6653 0 0 0 2045.625 511.0625 A 1208.6653 1208.6653 0 0 0 2027.2656 485.92969 A 1208.6653 1208.6653 0 0 0 2008.2676 461.2793 A 1208.6653 1208.6653 0 0 0 1988.6387 437.125 A 1208.6653 1208.6653 0 0 0 1968.3965 413.48438 A 1208.6653 1208.6653 0 0 0 1947.5508 390.375 A 1208.6653 1208.6653 0 0 0 1926.1172 367.80664 A 1208.6653 1208.6653 0 0 0 1904.1094 345.80078 A 1208.6653 1208.6653 0 0 0 1881.543 324.36719 A 1208.6653 1208.6653 0 0 0 1858.4316 303.52148 A 1208.6653 1208.6653 0 0 0 1834.791 283.27734 A 1208.6653 1208.6653 0 0 0 1810.6367 263.65039 A 1208.6653 1208.6653 0 0 0 1785.9863 244.65039 A 1208.6653 1208.6653 0 0 0 1760.8555 226.29102 A 1208.6653 1208.6653 0 0 0 1735.2578 208.58594 A 1208.6653 1208.6653 0 0 0 1709.2148 191.54688 A 1208.6653 1208.6653 0 0 0 1682.7402 175.18164 A 1208.6653 1208.6653 0 0 0 1655.8535 159.50391 A 1208.6653 1208.6653 0 0 0 1628.5723 144.52539 A 1208.6653 1208.6653 0 0 0 1600.916 130.25195 A 1208.6653 1208.6653 0 0 0 1572.8984 116.69727 A 1208.6653 1208.6653 0 0 0 1544.543 103.86719 A 1208.6653 1208.6653 0 0 0 1515.8672 91.773438 A 1208.6653 1208.6653 0 0 0 1486.8887 80.419922 A 1208.6653 1208.6653 0 0 0 1457.627 69.816406 A 1208.6653 1208.6653 0 0 0 1428.1016 59.970703 A 1208.6653 1208.6653 0 0 0 1398.334 50.888672 A 1208.6653 1208.6653 0 0 0 1368.3398 42.576172 A 1208.6653 1208.6653 0 0 0 1338.1445 35.037109 A 1208.6653 1208.6653 0 0 0 1307.7637 28.279297 A 1208.6653 1208.6653 0 0 0 1277.2188 22.306641 A 1208.6653 1208.6653 0 0 0 1246.5312 17.121094 A 1208.6653 1208.6653 0 0 0 1215.7188 12.726562 A 1208.6653 1208.6653 0 0 0 1184.8047 9.1289062 A 1208.6653 1208.6653 0 0 0 1153.8086 6.328125 A 1208.6653 1208.6653 0 0 0 1124.041 4.4101562 A 1208.6653 1208.6653 0 0 0 2.859375 1209.8008 A 1208.6653 1208.6653 0 0 0 1154.0371 2416.3145 z "
       transform="scale(0.26458333)" />
    <path
       id="path1242"
       style="fill:#ffbf3e;stroke:none;stroke-width:1.56701;stroke-linejoin:round;stroke-dashoffset:0.0579468;paint-order:markers fill stroke;fill-opacity:1"
       d="M 1211.5254 1.1347656 A 1208.6653 1208.6653 0 0 0 1124.041 4.4101562 A 1208.6653 1208.6653 0 0 1 1153.8086 6.328125 A 1208.6653 1208.6653 0 0 1 1184.8047 9.1289062 A 1208.6653 1208.6653 0 0 1 1215.7188 12.726562 A 1208.6653 1208.6653 0 0 1 1246.5312 17.121094 A 1208.6653 1208.6653 0 0 1 1277.2188 22.306641 A 1208.6653 1208.6653 0 0 1 1307.7637 28.279297 A 1208.6653 1208.6653 0 0 1 1338.1445 35.037109 A 1208.6653 1208.6653 0 0 1 1368.3398 42.576172 A 1208.6653 1208.6653 0 0 1 1398.334 50.888672 A 1208.6653 1208.6653 0 0 1 1428.1016 59.970703 A 1208.6653 1208.6653 0 0 1 1457.627 69.816406 A 1208.6653 1208.6653 0 0 1 1486.8887 80.419922 A 1208.6653 1208.6653 0 0 1 1515.8672 91.773438 A 1208.6653 1208.6653 0 0 1 1544.543 103.86719 A 1208.6653 1208.6653 0 0 1 1572.8984 116.69727 A 1208.6653 1208.6653 0 0 1 1600.916 130.25195 A 1208.6653 1208.6653 0 0 1 1628.5723 144.52539 A 1208.6653 1208.6653 0 0 1 1655.8535 159.50391 A 1208.6653 1208.6653 0 0 1 1682.7402 175.18164 A 1208.6653 1208.6653 0 0 1 1709.2148 191.54688 A 1208.6653 1208.6653 0 0 1 1735.2578 208.58594 A 1208.6653 1208.6653 0 0 1 1760.8555 226.29102 A 1208.6653 1208.6653 0 0 1 1785.9863 244.65039 A 1208.6653 1208.6653 0 0 1 1810.6367 263.65039 A 1208.6653 1208.6653 0 0 1 1834.791 283.27734 A 1208.6653 1208.6653 0 0 1 1858.4316 303.52148 A 1208.6653 1208.6653 0 0 1 1881.543 324.36719 A 1208.6653 1208.6653 0 0 1 1904.1094 345.80078 A 1208.6653 1208.6653 0 0 1 1926.1172 367.80664 A 1208.6653 1208.6653 0 0 1 1947.5508 390.375 A 1208.6653 1208.6653 0 0 1 1968.3965 413.48438 A 1208.6653 1208.6653 0 0 1 1988.6387 437.125 A 1208.6653 1208.6653 0 0 1 2008.2676 461.2793 A 1208.6653 1208.6653 0 0 1 2027.2656 485.92969 A 1208.6653 1208.6653 0 0 1 2045.625 511.0625 A 1208.6653 1208.6653 0 0 1 2063.3301 536.6582 A 1208.6653 1208.6653 0 0 1 2080.3711 562.70312 A 1208.6653 1208.6653 0 0 1 2096.7344 589.17578 A 1208.6653 1208.6653 0 0 1 2112.4121 616.0625 A 1208.6653 1208.6653 0 0 1 2127.3926 643.34375 A 1208.6653 1208.6653 0 0 1 2141.6641 671.00195 A 1208.6653 1208.6653 0 0 1 2155.2188 699.01758 A 1208.6653 1208.6653 0 0 1 2168.0488 727.37305 A 1208.6653 1208.6653 0 0 1 2180.1445 756.05078 A 1208.6653 1208.6653 0 0 1 2191.4961 785.0293 A 1208.6653 1208.6653 0 0 1 2202.0996 814.29102 A 1208.6653 1208.6653 0 0 1 2211.9453 843.81445 A 1208.6653 1208.6653 0 0 1 2221.0293 873.58398 A 1208.6653 1208.6653 0 0 1 2229.3418 903.57617 A 1208.6653 1208.6653 0 0 1 2236.8789 933.77344 A 1208.6653 1208.6653 0 0 1 2243.6367 964.15234 A 1208.6653 1208.6653 0 0 1 2249.6113 994.69727 A 1208.6653 1208.6653 0 0 1 2254.7969 1025.3867 A 1208.6653 1208.6653 0 0 1 2259.1895 1056.1973 A 1208.6653 1208.6653 0 0 1 2262.7871 1087.1113 A 1208.6653 1208.6653 0 0 1 2265.5898 1118.1094 A 1208.6653 1208.6653 0 0 1 2267.5918 1149.168 A 1208.6653 1208.6653 0 0 1 2268.793 1180.2676 A 1208.6653 1208.6653 0 0 1 2269.1934 1211.3887 A 1208.6653 1208.6653 0 0 1 2265.8145 1301.7129 A 1208.6653 1208.6653 0 0 1 2255.6934 1391.5312 A 1208.6653 1208.6653 0 0 1 2238.8906 1480.3418 A 1208.6653 1208.6653 0 0 1 2215.4961 1567.6484 A 1208.6653 1208.6653 0 0 1 2185.6426 1652.9629 A 1208.6653 1208.6653 0 0 1 2149.498 1735.8086 A 1208.6653 1208.6653 0 0 1 2107.2637 1815.7207 A 1208.6653 1208.6653 0 0 1 2059.1738 1892.2539 A 1208.6653 1208.6653 0 0 1 2005.502 1964.9785 A 1208.6653 1208.6653 0 0 1 1946.543 2033.4902 A 1208.6653 1208.6653 0 0 1 1882.6289 2097.4023 A 1208.6653 1208.6653 0 0 1 1814.1191 2156.3613 A 1208.6653 1208.6653 0 0 1 1741.3945 2210.0352 A 1208.6653 1208.6653 0 0 1 1664.8613 2258.123 A 1208.6653 1208.6653 0 0 1 1584.9492 2300.3574 A 1208.6653 1208.6653 0 0 1 1502.1035 2336.5039 A 1208.6653 1208.6653 0 0 1 1416.7891 2366.3555 A 1208.6653 1208.6653 0 0 1 1329.4824 2389.75 A 1208.6653 1208.6653 0 0 1 1240.6699 2406.5547 A 1208.6653 1208.6653 0 0 1 1154.0371 2416.3145 A 1208.6653 1208.6653 0 0 0 1211.5254 2418.4668 A 1208.6653 1208.6653 0 0 0 2420.1914 1209.8008 A 1208.6653 1208.6653 0 0 0 1211.5254 1.1347656 z "
       transform="scale(0.26458333)" />
    <path
       id="rect1365-6"
       style="fill:#009c0a;fill-opacity:1;stroke:none;stroke-width:0.256711;stroke-linejoin:round;stroke-dashoffset:0.0579468;stroke-opacity:1;paint-order:markers fill stroke"
       d="M 310.79834,177.07 298.75396,305.80891 H 162.30701 L 155.024,383.6548 h 136.44695 l -13.04971,139.48452 h 77.8459 L 369.31685,383.6548 h 131.77696 l 7.28301,-77.84589 H 376.59986 L 388.64424,177.07 Z" />
    <path
       id="rect1365"
       style="fill:#00dd0e;stroke:none;stroke-width:0.256711;stroke-linejoin:round;stroke-dashoffset:0.0579468;paint-order:markers fill stroke;stroke-opacity:1;fill-opacity:1"
       d="M 290.79811,157.07018 278.75373,285.80909 H 142.30678 l -7.28301,77.84589 H 271.47072 L 258.42101,503.1395 h 77.8459 l 13.04971,-139.48452 h 131.77696 l 7.28301,-77.84589 H 356.59963 l 12.04438,-128.73891 z" />
  </g>
</svg>
